<svg xmlns="http://www.w3.org/2000/svg" viewBox="0 0 512 512">
  <path fill="#FA5C5C" d="M71.92 34.77C50.2 47.67 7.4 96.84 7 109.73v21.34c0 27.06 25.29 51.6 38.52 51.6 18.83 0 37.5-15.86 37.5-39.21 0-23.83-16.21-41.34-38.29-41.34-15.41 0-17.32 7.18-23.25 7.18-5.06 0-5.29-3.68-5.29-6.37 0-10.8 8.47-25.55 8.47-25.55S58.8 40.47 71.92 34.77M49.65 110.55c-1.67 0-3.77 1.34-3.77 5.47 0 5.34 2.98 10.53 8.13 10.53 2.74 0 4.6-1.67 4.6-5.48 0-5.34-2.98-10.52-8.96-10.52"/>
  <path fill="#FA5C5C" d="M185.3 34.77c-21.7 12.9-64.52 62.07-64.92 74.96v21.34c0 27.06 25.29 51.6 38.52 51.6 18.83 0 37.5-15.86 37.5-39.21 0-23.83-16.21-41.34-38.29-41.34-15.41 0-17.32 7.18-23.25 7.18-5.06 0-5.29-3.68-5.29-6.37 0-10.8 8.47-25.55 8.47-25.55s30.14-36.91 47.25-42.61M163.03 110.55c-1.67 0-3.77 1.34-3.77 5.47 0 5.34 2.98 10.53 8.13 10.53 2.74 0 4.6-1.67 4.6-5.48 0-5.34-2.98-10.52-8.96-10.52"/>
  <path fill="#FA5C5C" d="M298.68 34.77c-21.7 12.9-64.52 62.07-64.92 74.96v21.34c0 27.06 25.29 51.6 38.52 51.6 18.83 0 37.5-15.86 37.5-39.21 0-23.83-16.21-41.34-38.29-41.34-15.41 0-17.32 7.18-23.25 7.18-5.06 0-5.29-3.68-5.29-6.37 0-10.8 8.47-25.55 8.47-25.55s30.14-36.91 47.25-42.61M276.4 110.55c-1.67 0-3.77 1.34-3.77 5.47 0 5.34 2.98 10.53 8.13 10.53 2.74 0 4.6-1.67 4.6-5.48 0-5.34-2.98-10.52-8.96-10.52"/>
  <path fill="#FA5C5C" d="M412.06 34.77c-21.7 12.9-64.52 62.07-64.92 74.96v21.34c0 27.06 25.29 51.6 38.52 51.6 18.83 0 37.5-15.86 37.5-39.21 0-23.83-16.21-41.34-38.29-41.34-15.41 0-17.32 7.18-23.25 7.18-5.06 0-5.29-3.68-5.29-6.37 0-10.8 8.47-25.55 8.47-25.55s30.14-36.91 47.25-42.61M389.78 110.55c-1.67 0-3.77 1.34-3.77 5.47 0 5.34 2.98 10.53 8.13 10.53 2.74 0 4.6-1.67 4.6-5.48 0-5.34-2.98-10.52-8.96-10.52"/>
  <path fill="#FA5C5C" d="M204.8 207.03c-2.74 0-5.63.86-7.63 2.61a9.3 9.3 0 0 0-3.5 7.54c0 3.03 1.3 5.26 3.28 7.54 1.67 1.82 3.5 3.17 5.4 4.28a59.67 59.67 0 0 0 6.05 2.83l1.07.36c5.4 1.82 10.36 4.08 14.2 7.82 4.1 3.9 6.05 9.17 6.05 15.72 0 6.66-2.33 12.97-6.66 17.4-4.32 4.46-10.36 6.67-17.38 6.67-10.13 0-19.6-5.39-24.33-13.78a8.28 8.28 0 0 1-1.07-4.08c0-2.38 1.9-4.92 5.17-4.92 2.13 0 4.1 1.34 5.17 3.35 2.98 5.13 8.25 8.43 15.06 8.43 4.1 0 7.48-1.16 9.83-3.5 2.36-2.37 3.5-5.62 3.5-9.53 0-3.9-1.3-6.8-3.5-9.17-2.36-2.37-5.63-4.1-9.6-5.63l-1.3-.43c-5.17-1.82-10.13-3.9-13.86-7.18-4.1-3.5-6.05-8.26-6.05-14.38 0-6.37 2.13-11.93 6.05-15.86 3.93-3.9 9.34-5.84 15.3-5.84 7.86 0 14.85 3.5 19.18 9.17.86 1.16 1.3 2.38 1.3 3.5 0 2.38-1.9 4.92-5.17 4.92-1.9 0-3.93-1.16-4.78-2.61-2.74-3.5-6.84-5.84-10.48-5.84zm147.72 0c-2.74 0-5.63.86-7.63 2.61a9.3 9.3 0 0 0-3.5 7.54c0 3.03 1.3 5.26 3.28 7.54 1.67 1.82 3.5 3.17 5.4 4.28a59.67 59.67 0 0 0 6.05 2.83l1.07.36c5.4 1.82 10.36 4.08 14.2 7.82 4.1 3.9 6.05 9.17 6.05 15.72 0 6.66-2.33 12.97-6.66 17.4-4.32 4.46-10.36 6.67-17.38 6.67-10.13 0-19.6-5.39-24.33-13.78a8.28 8.28 0 0 1-1.07-4.08c0-2.38 1.9-4.92 5.17-4.92 2.13 0 4.1 1.34 5.17 3.35 2.98 5.13 8.25 8.43 15.06 8.43 4.1 0 7.48-1.16 9.83-3.5 2.36-2.37 3.5-5.62 3.5-9.53 0-3.9-1.3-6.8-3.5-9.17-2.36-2.37-5.63-4.1-9.6-5.63l-1.3-.43c-5.17-1.82-10.13-3.9-13.86-7.18-4.1-3.5-6.05-8.26-6.05-14.38 0-6.37 2.13-11.93 6.05-15.86 3.93-3.9 9.34-5.84 15.3-5.84 7.86 0 14.85 3.5 19.18 9.17.86 1.16 1.3 2.38 1.3 3.5 0 2.38-1.9 4.92-5.17 4.92-1.9 0-3.93-1.16-4.78-2.61-2.74-3.5-6.84-5.84-10.48-5.84zm-74.32.86c-11.66 0-21.8 4.46-29.04 12.28-7.25 7.82-11.19 18.7-11.19 30.76 0 12.12 3.94 22.85 11.19 30.67 7.25 7.82 17.38 12.28 29.04 12.28 11.66 0 21.8-4.46 29.04-12.28 7.25-7.82 11.19-18.55 11.19-30.67 0-12.06-3.94-22.94-11.19-30.76-7.25-7.82-17.38-12.28-29.04-12.28zm-99.27.29c-3.28 0-5.82 2.61-5.82 5.84v77.08c0 3.23 2.55 5.84 5.82 5.84 3.28 0 5.82-2.61 5.82-5.84v-77.08c0-3.23-2.55-5.84-5.82-5.84zm198.54 0c-3.28 0-5.82 2.61-5.82 5.84v77.08c0 3.23 2.55 5.84 5.82 5.84 3.28 0 5.82-2.61 5.82-5.84v-77.08c0-3.23-2.55-5.84-5.82-5.84zm-99.27 10.98c7.86 0 14.2 2.9 18.95 8.11 4.78 5.26 7.25 12.8 7.25 21.95 0 9.17-2.48 16.57-7.25 21.8-4.75 5.2-11.09 8.11-18.95 8.11-7.86 0-14.2-2.9-18.95-8.11-4.78-5.23-7.25-12.63-7.25-21.8 0-9.16 2.48-16.7 7.25-21.95 4.75-5.2 11.09-8.11 18.95-8.11z"/>
  <path fill="#FA5C5C" d="M141.72 195.24c-4.97-5.97-12.1-9.54-19.82-9.54-7.7 0-14.82 3.57-19.8 9.54-4.36 5.25-6.57 12.1-6.57 19.2v69.54c0 3.27 2.7 5.97 5.97 5.97 3.3 0 5.98-2.7 5.98-5.97v-32.37h28.84v32.37c0 3.27 2.7 5.97 5.97 5.97 3.3 0 5.98-2.7 5.98-5.97v-69.54c0-7.1-2.2-13.95-6.55-19.2zm-5.57 40.83h-28.84v-21.63c0-4.36 1.32-8.33 3.87-11.3 2.8-3.27 6.85-5.25 11.3-5.25 4.47 0 8.53 1.98 11.32 5.25 2.55 2.97 3.87 6.94 3.87 11.3v21.63h-1.52zm248.42-40.83c-4.97-5.97-12.1-9.54-19.82-9.54-7.7 0-14.82 3.57-19.8 9.54-4.36 5.25-6.57 12.1-6.57 19.2v69.54c0 3.27 2.7 5.97 5.97 5.97 3.3 0 5.98-2.7 5.98-5.97v-32.37h28.84v32.37c0 3.27 2.7 5.97 5.97 5.97 3.3 0 5.98-2.7 5.98-5.97v-69.54c0-7.1-2.2-13.95-6.55-19.2zm-5.57 40.83h-28.84v-21.63c0-4.36 1.32-8.33 3.87-11.3 2.8-3.27 6.85-5.25 11.3-5.25 4.47 0 8.53 1.98 11.32 5.25 2.55 2.97 3.87 6.94 3.87 11.3v21.63h-1.52z"/>
</svg>
