<?xml version="1.0" encoding="utf-8" ?>
<svg xmlns="http://www.w3.org/2000/svg" xmlns:xlink="http://www.w3.org/1999/xlink" width="1973" height="525">
	<path d="M968.922 1.4409C969.614 1.34536 970.418 1.21102 971.112 1.32062C973.056 1.62754 974.434 2.91126 975.406 4.56414C978.48 9.79047 980.634 16.4005 983.022 22.0225C996.817 54.5028 993.685 70.5377 985.206 103.373C982.907 112.275 978.252 126.154 983.526 134.651C984.788 136.685 986.621 138.083 988.959 138.639C993.658 139.755 998.351 138.793 1002.4 136.269C1011.7 130.47 1017.06 121.353 1019.44 110.82C1023.57 92.5184 1021.93 64.1457 1011.76 47.9606C1017.22 51.3348 1019.99 55.082 1023.24 60.4968C1036.89 83.2573 1047.99 115.812 1036.32 141.457C1031.37 152.32 1023.82 162.821 1020.99 174.483C1020.25 177.527 1019.9 180.844 1021.71 183.618C1023.03 185.647 1025.15 186.79 1027.5 187.186C1030.2 187.64 1033.33 187.054 1035.58 185.457C1037.9 183.813 1040.95 181.062 1041.47 178.181C1045.3 173.15 1043.86 164.421 1045.63 158.45C1046.56 155.327 1048.3 152.275 1051.24 150.692C1053.61 153.223 1052.98 159.688 1054.69 163.282C1056.56 164.675 1056.67 164.877 1059 164.637C1072.57 154.77 1058.72 129.213 1061.72 116.329L1062.94 115.643C1064.36 116.602 1065.41 117.689 1066.37 119.091C1075.49 132.385 1081.17 161.561 1074.57 176.703C1071.09 184.68 1064.37 189.5 1062.79 198.666C1062.27 201.684 1062.45 205.269 1064.34 207.805C1065.69 209.613 1067.65 210.843 1069.91 211.088C1073.07 211.43 1076.09 210.145 1078.47 208.153C1086.96 201.067 1086.04 187.81 1086.98 177.819C1087.34 173.995 1087.44 164.231 1090.44 161.745C1094.4 164.115 1095.19 173.576 1096.34 177.982C1099.19 188.959 1107.62 201.132 1108.17 212.221C1108.33 215.369 1107.7 227.988 1109.4 229.857C1113.02 233.845 1117.13 231.662 1121.77 239.918C1137.07 240.173 1154.51 236.694 1169.45 239.352C1172.39 239.875 1173.63 241.557 1175.24 243.867C1203.28 243.812 1231.25 244.455 1259.26 244.682C1276.69 244.823 1294.26 244.246 1311.67 245.016C1316.74 245.241 1326.64 245.551 1330.16 249.386C1329.98 254.687 1322.01 261.695 1318.29 265.271C1292.71 289.85 1256.39 307.923 1223.17 319.808C1210.32 324.405 1195.03 328.087 1183.03 334.264C1181.29 335.161 1179.38 338.258 1178.14 339.875C1168.62 344.57 1147.05 343.939 1135.84 345.348C1135.91 345.564 1136.02 345.859 1136.04 346.096C1136.38 348.865 1135.38 353.33 1133.5 355.429C1130.6 358.683 1111.93 357.998 1107.02 358.26C1100.89 358.587 1096.17 359.919 1091.96 364.685C1084.59 373.035 1078.96 381.653 1079.79 393.202C1081.34 414.78 1103.56 439.332 1120.35 451.308C1125.98 455.32 1133.19 457.575 1138.29 462.263C1145.21 468.626 1140.05 495 1140.22 504.244C1140.29 508.077 1142.2 511.806 1142.18 515.362C1142.18 517.646 1141.49 518.128 1139.97 519.619C1133.6 521.901 1109.81 519.206 1101.43 519.198C1091.96 519.189 1068.39 522.903 1060.98 519.992C1059.32 516.403 1046.33 510.586 1042.53 508.8C1010.13 493.582 970.729 493.829 937.72 506.962C927.6 510.988 918.557 517.42 908.298 521.108C895.756 519.66 883.188 518.27 870.546 518.309C864.656 518.327 839.404 521.331 836.088 520.068C826.785 516.522 834.072 472.227 829.8 462.795C829.767 462.724 829.733 462.653 829.699 462.582C840.815 458.271 853.827 448.659 863.11 441.055C877.761 429.052 894.193 411.576 896.05 391.787C896.871 383.033 894.399 374.562 888.759 367.783C878.694 355.686 869.698 359.875 855.868 358.364C852.664 358.014 852.349 357.608 850.361 355.109C847.216 351.155 821.596 349.159 815.52 348.288C815.512 348.196 815.514 348.103 815.495 348.013C814.994 345.561 812.342 342.962 810.437 341.578C803.914 339.011 796.437 337.546 789.671 335.495Q767.754 329.074 746.634 320.381Q741.036 318.066 735.534 315.53Q730.032 312.994 724.635 310.242Q719.238 307.49 713.954 304.526Q708.671 301.562 703.51 298.39Q698.348 295.218 693.317 291.844Q688.286 288.469 683.392 284.898Q678.499 281.326 673.751 277.563Q669.003 273.801 664.409 269.852C659.384 265.59 652.612 260.838 650.064 254.607C650.119 253.062 649.845 251.937 651 250.773C659.653 242.058 797.525 243.725 817.784 243.796C819.977 242.291 821.383 240.9 822.963 238.777Q840.722 238.896 858.481 238.824C861.155 236.885 863.126 235.257 864.903 232.435C867.976 232.282 874.16 232.633 876.377 230.38C875.09 222.899 872.847 213.395 873.765 205.853C875.855 188.678 887.858 178.41 882.729 159.539C894.854 169.187 890.369 187.171 894.592 200.688C895.681 204.172 897.119 207.398 900.491 209.166C902.647 209.175 903.878 209.169 905.614 207.622C912.534 201.45 903.802 186.736 902.029 179.154C900.675 173.365 900.411 167.419 900.835 161.504C902.131 143.442 915.671 113.359 929.155 101.876C930.398 100.817 930.574 100.624 932.205 100.761L931.31 102.545L932.199 101.608C930.268 115.944 923.564 128.855 923.407 143.609C923.291 154.501 925.93 167.061 933.846 175.104C935.619 176.905 936.182 177.567 938.762 177.582C940.415 175.703 940.906 170.441 941.879 167.851L943.229 167.64C953.633 176.289 942.14 187.399 948.883 195.748C950.001 197.131 951.605 197.958 953.373 198.126C956.346 198.408 959.3 196.98 961.51 195.095C972.033 186.118 953.645 164.081 949.442 154.628Q948.305 152.085 947.425 149.442Q946.546 146.8 945.932 144.083Q945.317 141.366 944.974 138.602Q944.632 135.838 944.564 133.053C943.757 100.113 975.304 79.9793 977.721 47.1696C978.396 37.995 974.478 7.8982 968.922 1.4409Z"/>
	<path fill="#FEFEFE" d="M1020.21 238.402C1031.61 237.317 1043.56 237.931 1055.05 237.891C1069.38 237.842 1083.93 237.301 1098.23 237.972C1106.85 238.376 1110.85 239.709 1116.67 246.184C1119.87 249.746 1125.65 256.962 1125.36 261.963L966.028 262.001C947.677 262.138 929.397 261.107 911.059 261.051C897.425 261.009 875.806 262.983 863.005 260.36C862.769 259.855 862.578 259.361 862.47 258.812C861.726 255.021 864.24 249.492 866.369 246.47C868.449 243.519 871.327 241.011 874.877 240.079C884.864 237.455 896.963 238.802 907.286 238.833L982.593 239.054C994.478 239.086 1008.28 240.482 1019.92 238.454L1020.21 238.402Z"/>
	<path d="M1055.09 242.264C1062.86 241.426 1099.94 241.971 1105.98 244.584C1109.12 245.943 1110.84 248.699 1112.03 251.743C1111.9 254.361 1111.94 254.5 1110.19 256.426C1102.89 259.615 1002.76 256.986 987.436 257.034C967.439 257.097 947.498 258.099 927.493 258.078C911.698 258.498 895.8 257.02 879.955 257.103C878.973 253.904 873.41 253.181 871.983 249.459L873.095 247.288C875.56 245.524 878.005 244.566 881.004 244.129C900.184 241.336 920.283 243.454 939.572 243.809C968.621 244.344 997.963 244.47 1026.99 243.431C1036.18 243.101 1046.04 243.804 1055.09 242.264Z"/>
	<path fill="#FEFEFE" d="M900.331 410.841L901.669 411.666C905.18 423.593 879.65 442.065 875.84 452.783C875.691 453.204 876.355 454.208 876.565 454.641C878.812 456.117 881.395 458.023 884.005 458.723C887.964 459.784 913.938 462.059 917.075 460.623C921.338 458.672 926.588 452.01 930.207 448.702C942.419 437.537 966.137 418.878 982.115 415.874C1007.05 411.188 1027.36 431.459 1043.84 447.467C1047.87 451.39 1051.69 456.353 1056.35 459.497C1063.72 464.478 1081.02 462.192 1089.49 460.472C1092.83 459.793 1096.58 459.007 1098.51 456.081C1094.4 448.71 1087.94 442.573 1082.78 435.898C1076.91 428.294 1072.33 419.874 1067.95 411.356C1069.63 412.051 1071.69 412.856 1072.97 414.18C1076.79 418.137 1092.73 438.488 1094.59 442.637Q1095.19 442.878 1095.77 443.172C1098.8 444.724 1119.17 462.081 1120.11 464.881C1110.79 465.353 1065.63 467.468 1059.67 465.897C1044.3 461.849 1020.37 420.409 991.474 419.171C968.949 418.206 943.088 444.768 927.478 459.204C924.315 462.129 920.741 465.284 916.403 466.217C907.389 468.155 895.253 465.216 885.983 464.641Q865.245 463.55 844.493 462.76C848.471 461.327 852.173 459.518 855.788 457.329C869.387 449.094 896.451 426.698 900.331 410.841Z"/>
	<path fill="#FEFEFE" d="M670.368 255.755Q672.336 255.472 674.319 255.336C682.426 254.819 690.958 254.707 699.066 255.121C714.315 255.899 729.567 258.399 744.827 259.538C764.044 260.972 783.458 261.116 802.621 262.982C804.834 263.197 806.324 263.117 808.026 264.63C806.511 266.164 805.625 266.308 803.544 266.903C787.047 267.348 676.887 262.639 668.717 256.818L670.368 255.755Z"/>
	<path fill="#FEFEFE" d="M860.815 271.162L863.399 271.859C869.712 279.524 863.13 325.876 865.221 338.211C866.774 347.372 907.424 346.825 913.234 351.088L911.948 352.502C911.898 352.561 911.853 352.626 911.797 352.679C910.088 354.293 907.912 353.876 905.766 353.749C899.486 353.377 865.236 350.732 862.465 347.399C857.591 341.537 859.649 281.721 860.815 271.162Z"/>
	<path fill="#FEFEFE" d="M1120.34 272.129L1123.71 271.707C1124.83 272.193 1125.56 272.342 1126.18 273.478C1128.69 278.072 1127.45 337.307 1125.57 344.825C1125.19 345.206 1124.28 346.357 1123.85 346.536C1119.79 348.218 1079 350.423 1069.61 352.088C1068.92 352.483 1067.8 352.334 1067.01 352.328L1066.87 350.853C1073.41 340.575 1108.64 348.519 1118.56 341.379C1120.88 339.708 1121.16 337.246 1121.53 334.538C1122.64 326.353 1123.78 276.628 1120.34 272.129Z"/>
	<path fill="#FEFEFE" d="M1276.64 254.793C1282.78 253.938 1307.22 252.415 1311.79 255.305C1305.71 258.641 1226.71 267.99 1214.09 269.239C1212.49 269.757 1210.6 269.797 1208.93 269.967C1204.16 270.456 1188.91 272.653 1185.27 269.688L1185.08 267.84C1192.65 265.92 1201.48 265.992 1209.28 265.07C1231 262.501 1255.59 260.263 1276.64 254.793Z"/>
	<path fill="#FEFEFE" d="M831.71 246.123C834.83 245.898 837.553 245.863 840.641 246.435C840.51 248.204 833.004 253.06 831.334 255.289C830.059 261.785 839.723 260.051 842.147 264.608C840.319 265.646 838.14 265.707 836.088 265.926C832.1 265.898 828.125 266.923 824.143 266.918C821.661 266.915 821.06 266.37 819.386 264.746C818.905 262.645 819.198 261.041 820.066 259.08C822.549 253.467 825.824 248.357 831.71 246.123Z"/>
	<path fill="#FEFEFE" d="M946.953 352.087C957.605 353.319 972.979 349.96 982.267 355.177L982.52 356.624C978.5 359.612 973.589 359.047 968.856 358.822C962.349 357.082 957.289 358.393 950.908 358.923C946.561 359.284 938.608 358.668 935.216 355.738L935.773 354.529C939.377 352.509 942.902 352.359 946.953 352.087Z"/>
	<path fill="#FEFEFE" d="M1162.89 248.047C1164.46 248.253 1165.48 248.22 1166.76 249.263C1168.98 251.063 1172.17 258.872 1172.27 261.711C1172.3 262.917 1171.82 264.808 1170.94 265.671C1166.36 270.144 1151.37 268.013 1145.22 267.929C1144.36 267.959 1143.42 267.985 1142.58 267.765C1140.8 267.299 1139.23 266.635 1138.26 265.082C1142.04 262.151 1153.41 263.631 1158.65 261.457C1160.9 260.523 1162.88 259.179 1163.76 256.8C1164.89 253.758 1164.28 250.852 1162.89 248.047Z"/>
	<path fill="#FEFEFE" d="M839.816 473.45C841.795 473.356 842.373 473.091 844.047 474.235C846.618 481.727 846.448 489.943 846.152 497.75C845.988 502.077 846.43 504.958 843.142 508.004L841.593 508.363C838.367 502.543 840.039 481.07 839.816 473.45Z"/>
	<path fill="#FEFEFE" d="M770.678 270.203C779.272 270.073 797.566 272.345 805.338 275.827C807.436 276.767 807.84 277.17 808.646 279.224L806.612 281.371C797.974 273.565 778.577 280.044 770.366 272.274L770.678 270.203Z"/>
	<path fill="#FEFEFE" d="M1126.91 474.42C1128.55 474.226 1129.42 474.205 1130.93 474.969C1131.34 475.844 1131.68 476.746 1131.83 477.703C1132.97 485.151 1133.82 501.144 1129.57 507.184L1129.05 507.278L1127.66 506.278C1125.47 496.783 1127 484.305 1126.91 474.42Z"/>
	<path fill="#FEFEFE" d="M1167.99 279.829C1169.7 279.795 1170.31 279.746 1171.86 280.591C1172.25 281.489 1172.59 282.434 1172.79 283.395C1174.45 291.291 1174.69 313.535 1170.38 320.302L1170.21 320.627L1169.38 320.873C1168.3 310.997 1171.31 287.947 1167.99 279.829Z"/>
	<path fill="#FEFEFE" d="M909.705 476.345C910.699 476.48 911.66 477.094 912.549 477.543C913.201 478.667 913.695 479.793 913.882 481.085C914.858 487.805 915.816 503.874 911.806 509.113L910.619 508.661C908.451 500.375 910.015 485.33 909.705 476.345Z"/>
	<path fill="#FEFEFE" d="M1149.07 278.867L1151.79 278.802C1153.63 280.294 1154.18 283.243 1154.62 285.477C1155.55 290.248 1156.16 300.597 1153.35 304.745L1152.22 305.243C1148.33 301.357 1150.92 285.011 1149.07 278.867Z"/>
	<path fill="#FEFEFE" d="M1003.47 350.159C1004.8 349.928 1006.25 349.661 1007.59 349.821C1009.43 350.041 1010.97 350.518 1012.15 352.003C1011.26 354.361 1010.49 354.579 1008.37 355.941C1005.72 356.24 1004.65 356.639 1002.23 355.3C1001.93 352.887 1002.36 352.329 1003.47 350.159Z"/>
	<path d="M104.531 292.107C109.734 291.324 115.744 291.831 121.028 291.791C138.279 291.661 153.147 291.254 169.078 298.9C169.038 313.513 167.94 330.71 174.094 344.29C178.013 352.94 182.895 360.755 186.163 369.77C200.739 370.519 215.621 369.882 230.234 369.891L317.492 369.903L573.91 369.918C618.335 369.934 663.496 368.319 707.833 370.36C718.892 370.869 729.714 372.984 740.71 373.65C759.623 374.796 783.741 371.564 801.709 377.423C802.188 377.98 802.635 378.554 803.025 379.178C805.909 383.782 811.461 396.26 810.235 401.411C810.481 402.185 810.645 402.94 810.637 403.758C810.594 408.612 804.766 422.871 801.288 426.164C786.113 426.003 770.967 426.958 755.796 427.011L625.955 427.033C603.173 427.303 580.236 426.122 557.411 426.108L332.126 426.093C283.499 426.067 234.41 424.432 185.945 428.404C183.68 438.664 181.978 444.565 173.284 451.214C173.069 461.727 173.241 498.141 170.314 505.556C169.132 506.347 167.95 506.788 166.56 507.069C154.507 509.498 103.834 512.079 95.0352 505.869C93.2398 504.602 93.3274 503.432 93.1216 501.397C92.4157 494.42 93.5153 486.946 93.4343 479.9C93.3125 469.301 91.4283 458.564 89.5836 448.15C84.9106 443.719 81.2096 439.51 77.9546 433.931C65.0105 430.739 10.6665 410.569 1.90221 402.408L2.06916 401.039C6.95142 394.318 47.6321 378.905 57.4071 375.391C64.0984 372.987 73.3305 371.516 78.9839 367.318C81.804 362.633 82.2106 356.102 83.5125 350.832C88.9491 328.824 92.3095 320.615 91.7479 296.847C95.7696 293.99 99.7194 292.898 104.531 292.107Z"/>
	<path fill="#FEFEFE" d="M404.222 379.035C449.627 378.807 495.251 378.255 540.644 378.993C551.596 379.171 562.499 381.085 573.431 381.208C583.149 381.317 592.825 378.982 602.518 379.139C612.097 379.295 621.073 383.101 630.919 383.142L730.315 383.045C747.331 382.94 768.812 380.274 785.341 383.936L785.216 384.508C782.191 386.517 779.272 386.708 775.744 387.05C753.209 389.585 730.392 387.208 707.786 387.125C690.432 387.061 673.042 387.361 655.693 386.963C638.851 386.577 622.031 385.477 605.176 385.348C592.403 385.251 579.587 387.025 566.821 386.578C550.54 386.007 534.348 382.957 518.011 382.384C509.839 382.097 501.654 382.438 493.485 382.111C482.424 381.668 471.292 380.506 460.223 380.895C448.442 381.31 436.983 384.098 425.143 383.652C421.156 383.502 401.173 381.55 398.719 379.662C399.416 379.964 402.834 379.074 404.222 379.035Z"/>
	<path fill="#FEFEFE" d="M104.145 350.854L106.397 352.062C108.831 355.535 106.912 358.273 107.852 361.835C108.518 364.357 113.902 365.039 116.174 366.467C114.48 368.596 111.97 368.602 109.373 369.231C104.97 389.699 104.369 410.117 105.386 430.935C105.83 440.004 110.816 459.812 107.361 467.292C107.054 467.955 104.088 468.788 103.252 469.1C100.402 463.02 101.127 454.963 99.3495 448.415C97.429 441.341 88.5328 431.505 90.716 424.295C91.0354 424.373 91.1103 424.384 91.4527 424.512C95.6058 426.065 97.9308 431.059 99.6834 434.757C99.8259 424.906 102.569 415.366 103.063 405.562C103.941 388.163 100.074 367.746 104.145 350.854Z"/>
	<path fill="#FEFEFE" d="M157.934 322.158C158.281 322.358 158.492 322.507 158.771 322.794C161.92 326.039 159.992 354.372 159.949 360.113C162.902 363.692 165.332 367.903 167.889 371.782C166.782 380.617 166.919 416.222 162.979 420.955C160.92 419.976 161.034 419.12 160.252 417.04C159.604 403.897 160.793 390.895 160.996 377.76C158.935 374.976 156.578 370.93 153.887 368.811C152.327 367.584 150.859 368.152 148.98 368.34L147.438 366.546C147.101 361.953 152.328 356.412 153.544 351.779C156.064 342.178 155.164 331.849 157.934 322.158Z"/>
	<path fill="#FEFEFE" d="M260.36 378.005C287.459 377.935 314.433 378.562 341.504 378.921C358.039 379.141 374.674 378.656 391.179 379.707C388.771 381.736 346.085 382.037 339.348 381.589C325.55 380.118 311.098 381.013 297.199 380.918C287.035 380.848 276.7 379.953 266.567 380.383C244.141 381.334 224.259 384.047 201.754 380.279C220.747 376.734 241.044 380.073 260.36 378.005Z"/>
	<path fill="#FEFEFE" d="M69.997 395.34C70.2413 395.248 70.2489 395.236 70.5501 395.181C75.3892 394.303 81.4383 394.897 85.648 397.575L85.6422 398.425C80.2446 403.3 49.7459 402.465 40.9529 403.206C35.1618 404.212 29.501 405.648 23.6995 404.008L23.0607 402.728C29.8746 396.58 60.2712 396.295 69.997 395.34Z"/>
	<path fill="#FEFEFE" d="M122.658 457.021C128.202 456.677 140.972 455.794 145.672 458.145L145.988 459.736C141.154 462.998 136.045 459.69 132.079 462.179C131.977 462.243 131.878 462.313 131.778 462.38C127.063 463.509 121.961 463.708 117.124 463.831C114.272 463.904 111.455 464.105 109.324 462.083L110.688 459.941C114.157 457.863 118.71 457.6 122.658 457.021Z"/>
	<path fill="#FEFEFE" d="M102.819 475.924C106.534 477.818 111.055 477.926 114.053 480.999C115.337 483.874 114.673 486.304 114.11 489.267C113.165 489.527 112.175 489.794 111.198 489.894C109.675 490.051 107.643 489.487 106.468 488.509C103.172 485.765 103.221 479.915 102.819 475.924Z"/>
	<path fill="#FEFEFE" d="M104.347 299.101L106.041 300.597C105.053 307.641 104.888 316.111 102.541 322.743L101.098 322.501C99.388 320.581 99.7126 315.962 99.755 313.499C99.8506 307.933 100.24 303.133 104.347 299.101Z"/>
	<path fill="#FEFEFE" d="M117.748 299.091C125.693 298.869 135.549 297.901 143.227 300.09L143.718 301.516C137.233 302.387 128.912 304.332 122.451 302.933C119.624 302.321 119.242 301.396 117.748 299.091Z"/>
	<path d="M1831.81 292.358C1842.04 291.093 1867.97 289.732 1876.98 294.457C1877.81 294.892 1879.4 295.687 1879.99 296.373C1882.93 299.803 1882.08 324.841 1883.44 331.298C1884.98 338.662 1888.31 345.772 1890.47 352.983C1891.86 357.614 1893.36 365.041 1890.98 369.511C1897.85 370.005 1904.24 371.249 1910.73 373.526C1920.55 376.972 1967.31 394.022 1971.22 402.172C1964.75 409.649 1905.99 431.299 1893.38 433.977C1893.34 434.502 1893.27 435.018 1893.12 435.525C1891.46 441.248 1887.35 444.149 1882.39 446.924C1884.74 453.738 1880.31 465.16 1879.92 472.546C1879.41 482.137 1882.85 496.12 1879 504.875C1878.51 506 1877.31 506.698 1876.18 507.106C1865.25 511.071 1814.43 510.588 1804.21 505.558C1803.52 505.218 1802.43 504.58 1801.96 503.949C1798.38 499.145 1802.04 461.878 1798.55 451.462L1798.45 451.169C1798.2 448.348 1792.62 445.139 1790.98 442.513C1788.28 438.188 1788.98 432.451 1785.41 428.468C1780.53 425.836 1769.79 426.404 1764.24 426.249C1719.64 424.996 1674.68 426.085 1630.04 426.103L1378.35 426.112C1355.7 426.088 1333.08 426.996 1310.44 427.022C1282.29 427.054 1254.35 426.218 1226.16 426.912C1218.43 427.103 1177.81 427.364 1173.08 426.08C1171.42 425.627 1170.1 423.924 1169.27 422.52C1165.66 416.456 1165.35 407.461 1160.03 402.504C1159.98 402.453 1159.92 402.403 1159.87 402.352C1160.3 401.956 1160.73 401.533 1161.08 401.064C1163.84 397.415 1169.99 381.472 1169.4 377.297C1180.55 376.519 1191.64 374.85 1202.8 374.202C1212.24 373.653 1221.75 374.16 1231.18 373.459C1245.02 372.43 1258.65 370.674 1272.57 370.193C1311.71 368.839 1351.21 369.904 1390.4 369.908L1612.28 369.921C1628.08 369.914 1643.92 370.129 1659.71 369.807C1669.22 369.613 1678.75 368.765 1688.25 368.948C1711.01 369.387 1733.66 369.935 1756.43 369.974C1765.99 369.99 1776.25 370.757 1785.73 369.598C1795.17 360.264 1802.79 331.481 1803.69 318.145C1804.1 312.135 1801.93 304.711 1804.6 299.169C1810.8 292.786 1823.66 293.74 1831.81 292.358Z"/>
	<path fill="#FEFEFE" d="M1188.76 382.911C1189.67 382.634 1190.6 382.411 1191.55 382.308C1214.64 379.815 1239.33 382.935 1262.6 383.085C1280.59 383.2 1298.66 383.479 1316.64 383.081C1330.16 382.782 1343.55 381.718 1357.1 381.972C1359.91 382.025 1362.88 381.866 1365.09 383.671L1363.83 384.944C1345.43 387.977 1324.91 385.772 1306.22 386.15C1289.08 386.497 1271.86 386.722 1254.74 387.294C1236.07 387.918 1216.63 389.297 1198.07 386.992C1193.67 386.445 1191.5 386.429 1188.76 382.911Z"/>
	<path fill="#FEFEFE" d="M1864.78 344.381C1865.46 344.696 1866.14 345.373 1866.74 345.851C1867.08 348.942 1867.16 351.931 1867.12 355.038C1868.15 356.312 1869.43 357.943 1869.79 359.571C1872.77 373.084 1866.27 421.635 1874.99 432.437C1876.61 430.963 1877.98 429.669 1880.11 428.981L1880.74 430.683C1878.63 437.892 1875.53 444.745 1873.36 451.916C1872.47 454.886 1872.32 460.748 1870.71 463.139C1870.27 463.797 1868.9 464.639 1868.25 465.181L1866.5 466.989L1865.55 466.763C1863.21 457.395 1867.71 445.943 1867.68 436.366C1867.65 426.708 1862.78 348.752 1863.03 347.966C1863.27 347.244 1863.62 346.562 1863.96 345.885Q1864.14 345.529 1864.33 345.18Q1864.55 344.778 1864.78 344.381Z"/>
	<path fill="#FEFEFE" d="M1811.9 327.039L1812.95 327.456C1815.89 331.401 1815.05 342.274 1816.44 347.405C1817.9 352.803 1821.5 357.299 1822.16 362.98C1821.04 364.075 1817.59 364.312 1816 364.823C1802.51 369.15 1815.28 405.463 1809.46 416.629C1809.87 418.848 1810.05 419.315 1809.08 421.351L1807.61 421.218C1801.27 413.706 1807.99 379.379 1802.73 366.788C1805.68 364.741 1808.75 359.552 1810.8 356.558C1811.38 347.524 1809.12 335.399 1811.9 327.039Z"/>
	<path fill="#FEFEFE" d="M1435.87 379.06C1470.47 378.176 1505.32 378.963 1539.94 378.955C1560.85 378.95 1583.46 377.112 1604.12 379.786L1604.14 380.038C1602.43 379.844 1601 379.705 1599.33 380.21C1599.21 380.248 1599.09 380.288 1598.96 380.327C1587.85 382.631 1575.42 382.836 1564.06 383.054C1551.4 383.298 1538.79 382.403 1526.13 382.136C1507.66 381.746 1489.12 381.877 1470.64 382.018C1464 382.068 1443.62 384.734 1438.86 382.749C1436.87 381.921 1436.64 380.895 1435.87 379.06Z"/>
	<path fill="#FEFEFE" d="M1905.29 396.4C1912.27 397.002 1919.09 397.947 1926.11 398.255C1933.08 398.559 1939.83 396.569 1946.64 398.871C1948.98 399.659 1950.33 400.552 1951.41 402.749L1949.84 404.373C1944.65 405.856 1941.13 404.987 1935.88 404.106C1921.43 400.508 1903.07 407.318 1888.96 402.036L1888.31 400.359C1892.47 393.935 1898.52 397.908 1905.05 396.456L1905.29 396.4Z"/>
	<path fill="#FEFEFE" d="M1687.39 378.096C1698.51 378.017 1764.4 376.5 1769.51 378.672L1767.13 379.689C1766.9 379.873 1766.91 379.877 1766.6 380.032C1756.15 385.112 1699.42 383.15 1687.39 378.096Z"/>
	<path fill="#FEFEFE" d="M1853.39 457.087C1855.4 456.984 1856.79 457.241 1858.68 457.93C1855.79 461.499 1847.67 462.444 1843.14 463.196C1841.09 462.9 1840.95 462.553 1839.56 461.01L1840.09 459.735C1843.8 457.541 1849.17 457.548 1853.39 457.087Z"/>
	<path fill="#FEFEFE" d="M1864.61 481.169L1868.43 480.651L1869.75 482.549C1869.48 484.63 1869.09 485.993 1867.43 487.487C1865.15 489.54 1862.86 488.985 1860.06 488.877L1857.73 485.945C1857.98 483.801 1862.43 483.535 1864.27 481.549C1864.38 481.424 1864.49 481.296 1864.61 481.169Z"/>
	<path d="M1082.31 78.5091C1083.84 78.7372 1085.28 78.2247 1086.8 78.0681C1092.05 77.5259 1093.08 92.2221 1100.2 97.9114C1100.68 98.2925 1101.17 98.6328 1101.49 99.1664C1104.55 104.255 1098.05 109.327 1096.13 113.823C1094.97 116.513 1094.51 119.963 1093.95 122.837C1092.31 124.702 1090.16 125.704 1088.01 126.845C1084.71 122.748 1085.96 117.101 1083.42 112.975C1080.68 108.535 1077.17 107.714 1072.5 106.732C1072.36 106.38 1072.25 106.028 1072.15 105.662C1071.47 102.99 1071.46 98.606 1072.87 96.2034C1075.42 95.9742 1076.23 96.993 1078.27 98.3818L1079.64 97.8041C1080.53 95.0956 1081.52 92.4082 1082.39 89.6958C1083.43 86.4282 1083.95 81.6348 1082.31 78.5091Z"/>
	<path d="M897.344 50.5679C897.892 50.502 898.444 50.4569 898.988 50.5895C904.406 51.9105 900.757 62.7129 903.42 66.6502C905.303 67.4113 906.548 68.1929 908.031 69.5827L907.515 71.8727L903.909 73.6712C901.894 75.9985 902.498 81.2556 901.759 84.3587C899.546 86.3951 899.324 86.1844 896.271 86.2248C896.364 85.9426 896.452 85.6437 896.485 85.3479C897.466 76.6018 890.428 78.9503 886.861 74.1091C888.047 71.6604 892.997 70.0912 895.581 69.0401C895.785 62.7723 896.363 56.7614 897.344 50.5679Z"/>
	<path d="M930.938 36.1211C932.391 36.2869 933.299 37.2227 934.357 38.1361C937.712 44.7265 936.758 53.4975 934.749 60.3661C933.854 63.4246 932.925 65.7861 929.996 67.4063C929.541 67.6693 928.397 67.6836 927.841 67.7532C927.576 67.3991 927.35 67.0394 927.161 66.6373C924.276 60.5043 928.755 42.1137 930.938 36.1211Z"/>
	<path d="M1034.55 21.6687C1035.9 21.5165 1037.33 21.3725 1038.48 22.2703C1041.95 24.9983 1043.48 29.8906 1044.02 34.096C1044.68 39.1777 1044.66 47.3232 1041.38 51.5409C1040.78 52.5226 1040.65 52.4526 1039.6 52.7993C1033.05 42.9558 1035.7 32.6671 1034.55 21.6687Z"/>
	<path d="M882.287 108.369C883.378 108.286 884.615 108.189 885.674 108.52C887.381 109.054 889.246 111.206 890.031 112.8C890.976 114.72 890.917 117.48 890.124 119.436C889.024 122.153 887.351 124.202 884.599 125.312L883.909 125.99C881.834 125.796 881.388 125.239 879.767 123.995C878.916 117.042 878.512 114.415 882.287 108.369Z"/>
</svg>
