<?xml version="1.0" encoding="utf-8" ?>
<svg xmlns="http://www.w3.org/2000/svg" xmlns:xlink="http://www.w3.org/1999/xlink" width="2048" height="4096">
	<path fill="#4F518C" transform="scale(2 2)" d="M0 0L54.1144 0L51.9738 1.28538C35.2246 0.0704594 17.9772 0.988536 1.17278 1.10049C1.01017 6.01784 -0.77702 18.5714 2.42503 22.2931L3.745 22.6677L0 23.6633L0 0.85138L0 0Z"/>
	<path fill="#FADFB9" transform="scale(2 2)" d="M54.1144 0L70.6112 0L70.772 0.850516C51.2382 20.5346 28.1627 33.8675 0 35.6317L0 23.6633L3.745 22.6677C22.7464 19.3653 36.3084 12.3875 51.9738 1.28538L54.1144 0Z"/>
	<path fill="#4F518C" transform="scale(2 2)" d="M70.6112 0L105.322 0C94.2279 2.02518 82.0098 1.11103 70.772 0.850516L70.6112 0Z"/>
	<path fill="#2C2A4A" transform="scale(2 2)" d="M105.322 0L107.352 0C79.9887 30.1766 43.6942 54.0858 1.90038 56.2566C1.26741 56.2913 0.633834 56.3139 0 56.3243L0 35.6317C28.1627 33.8675 51.2382 20.5346 70.772 0.850516C82.0098 1.11103 94.2279 2.02518 105.322 0Z"/>
	<path fill="#FADFB9" transform="scale(2 2)" d="M107.352 0L124.345 0L123.952 1.01801C116.601 9.01733 109.352 17.3783 101.273 24.6497C74.1387 49.0728 38.1085 67.4039 1.19386 69.062C0.79599 69.0794 0.39803 69.0949 -8.88178e-16 69.1083L0 56.3243C0.633834 56.3139 1.26741 56.2913 1.90038 56.2566C43.6942 54.0858 79.9887 30.1766 107.352 0Z"/>
	<path fill="#2C2A4A" transform="scale(2 2)" d="M124.345 0L147.312 0L149.065 0C115.693 46.32 66.7723 78.5612 10.2253 87.7315C6.8211 88.2806 3.41257 88.8022 0 89.2962L0 69.1083C0.39803 69.0949 0.79599 69.0794 1.19386 69.062C38.1085 67.4039 74.1387 49.0728 101.273 24.6497C109.352 17.3783 116.601 9.01733 123.952 1.01801L124.345 0Z"/>
	<path fill="#FADFB9" transform="scale(2 2)" d="M149.065 0L164.54 0C135.973 47.3256 83.4731 84.0732 30.1426 97.2926C20.2439 99.7463 10.1952 101.48 0 101.981L0 89.2962C3.41257 88.8022 6.8211 88.2806 10.2253 87.7315C66.7723 78.5612 115.693 46.32 149.065 0Z"/>
	<path fill="#2C2A4A" transform="scale(2 2)" d="M164.54 0L179.929 0C146.111 54.3973 91.3638 96.6811 28.6397 111.424C19.1663 113.651 9.64053 115.018 0 116.236L0 101.981C10.1952 101.48 20.2439 99.7463 30.1426 97.2926C83.4731 84.0732 135.973 47.3256 164.54 0Z"/>
	<path fill="#FADFB9" transform="scale(2 2)" d="M179.929 0L194.835 0L194.838 1.0651C186.248 13.0629 178.259 25.7321 168.841 37.0926C129.776 84.2105 76.8577 117.119 16.1158 127.202C11.0794 128.02 6.02178 128.703 0.948491 129.248L0 129.049L0 116.236C9.64053 115.018 19.1663 113.651 28.6397 111.424C91.3638 96.6811 146.111 54.3973 179.929 0Z"/>
	<path fill="#4F518C" transform="scale(2 2)" d="M194.835 0L224.98 0L225.343 1.20018C215.584 -0.0520608 204.704 0.947727 194.838 1.0651L194.835 0Z"/>
	<path fill="#FADFB9" transform="scale(2 2)" d="M224.98 0L241.242 0L240.889 1.25323C199.266 76.4312 139.444 134.114 55.097 158.419C38.23 163.395 20.8404 166.386 3.28046 167.333L0 167.332L0 155.078L1.00607 155.268C31.5196 152.815 61.3362 144.854 89.0107 131.769C136.175 110.19 176.687 76.3526 206.32 33.7846C213.458 23.6783 221.089 12.8993 225.343 1.20018L224.98 0Z"/>
	<path fill="#2C2A4A" transform="scale(2 2)" d="M241.242 0L284.08 0L286.172 0C246.419 81.4857 175.674 148.516 89.0695 178.134C60.6568 187.967 31.0813 194.047 1.09364 196.218L0 196.049L0 167.332L3.28046 167.333C20.8404 166.386 38.23 163.395 55.097 158.419C139.444 134.114 199.266 76.4312 240.889 1.25323L241.242 0Z"/>
	<path fill="#FADFB9" transform="scale(2 2)" d="M286.172 0L300.698 0C295.832 11.8435 289.082 23.3139 282.586 34.3424C242.33 102.027 181.151 154.781 108.281 184.643C74.6852 198.642 36.3697 207.489 0 209.133L0 196.049L1.09364 196.218C31.0813 194.047 60.6568 187.967 89.0695 178.134C175.674 148.516 246.419 81.4857 286.172 0Z"/>
	<path fill="#2C2A4A" transform="scale(2 2)" d="M300.698 0L301.712 0L327.827 0L326.743 1.07099C283.664 95.8483 204.86 169.75 107.515 206.661C72.9196 219.835 36.8015 226.406 0 229.11L0 209.133C36.3697 207.489 74.6852 198.642 108.281 184.643C181.151 154.781 242.33 102.027 282.586 34.3424C289.082 23.3139 295.832 11.8435 300.698 0Z"/>
	<path fill="#FADFB9" transform="scale(2 2)" d="M327.827 0L341.876 0L341.983 0.805617C291.842 103.809 215.353 183.508 105.205 221.521C71.1225 233.283 36.5243 238.875 0.715466 241.99L0 241.941L0 229.11C36.8015 226.406 72.9196 219.835 107.515 206.661C204.86 169.75 283.664 95.8483 326.743 1.07099L327.827 0Z"/>
	<path fill="#4F518C" transform="scale(2 2)" d="M341.876 0L565.317 0L564.551 4.89662L563.759 1.92316C563.231 1.55379 562.784 1.02248 562.173 0.81506C558.886 -0.301775 518.322 0.961822 510.967 0.98009L341.983 0.805617L341.876 0Z"/>
	<path fill="#907AD6" transform="scale(2 2)" d="M565.317 0L644.336 0C633.308 66.5673 604.041 121.929 548.318 161.676C515.204 185.296 477.601 197.141 437.799 203.15C422.241 205.499 406.567 206.795 391.403 211.205C371.476 216.999 352.719 226.873 335.709 238.658C295.908 266.043 264.866 304.342 246.314 348.95C238.268 368.324 232.128 388.323 221.963 406.786C177.761 487.066 90.6397 533.607 0 533.184L0 422.929L0.931096 422.763C75.9281 427.017 145.738 384.44 176.286 315.814C195.266 273.509 192.092 233.304 234.844 203.831C284.929 169.302 325.946 186.85 379.298 184.9C420.186 183.406 460.848 165.444 492.143 139.619C534.151 104.954 559.273 58.9966 564.551 4.89662L565.317 0Z"/>
	<path fill="#DABFFF" transform="scale(2 2)" d="M644.336 0L718.173 0L718.723 1.13636C720.556 67.8013 699.766 130.896 653.365 179.77C615.578 219.571 560.92 246.179 505.656 247.338C491.215 247.641 476.704 246.215 462.292 247.424C403.226 252.638 347.991 278.873 306.628 321.359C278.252 350.789 259.305 383.501 248.324 422.968C243.812 439.186 240.551 455.731 234.458 471.465C226.588 491.792 214.672 511.093 202.071 528.845C153.736 587.869 94.7048 626.941 17.3386 634.533C11.5708 635.099 5.75773 635.188 0 635.745L0 533.184C90.6397 533.607 177.761 487.066 221.963 406.786C232.128 388.323 238.268 368.324 246.314 348.95C264.866 304.342 295.908 266.043 335.709 238.658C352.719 226.873 371.476 216.999 391.403 211.205C406.567 206.795 422.241 205.499 437.799 203.15C477.601 197.141 515.204 185.296 548.318 161.676C604.041 121.929 633.308 66.5673 644.336 0Z"/>
	<path fill="#907AD6" transform="scale(2 2)" d="M718.173 0L828.174 0L828.688 0L944.784 0L945.663 0L992.029 0L990.586 2.59637C988.951 11.138 989.451 19.7285 988.643 28.3646C987.056 45.3212 981.153 79.4677 971.609 93.6405C969.425 92.1432 968.869 91.3467 966.137 91.6229C963.558 95.3015 963.975 99.1164 964.726 103.426C964.951 104.717 965.276 105.974 965.671 107.224C962.473 112.235 958.817 120.548 953.942 123.748C950.615 123.864 949.871 121.877 946.989 123.747C944.775 128.026 948.203 131.547 947.066 135.575C945.72 140.347 936.213 150.444 932.322 153.724L928.68 153.08C925.965 155.115 925.712 156.832 925.248 160.101C924.371 166.276 906.375 178.935 901.236 182.809C860.619 213.42 813.491 226.635 763.188 228.572C775.426 213.633 786.076 194.532 794.415 177.229C822.873 118.184 829.526 65.9716 827.907 1.19791C791.666 0.0275241 754.991 0.77573 718.723 1.13636L718.173 0ZM948.966 1.46237L945.946 0.727685C943.791 4.40554 942.368 7.84504 943.465 12.13C943.768 13.3119 944.957 14.3721 945.732 15.3169L948.288 15.9618C950.247 14.6516 950.933 14.2592 951.325 11.7492C951.837 8.46322 950.175 4.44998 948.966 1.46237ZM925.818 29.3519C923.943 33.1351 922.507 37.9612 923.947 42.1311C924.649 44.1651 925.78 45.3519 927.728 46.221C928.153 46.4103 928.59 46.571 929.026 46.7324C930.736 42.5052 932.325 37.8532 930.363 33.4064C929.457 31.3514 927.878 30.0938 925.818 29.3519ZM967.051 29.4237C964.807 33.0542 962.798 36.9959 964.095 41.399C964.919 44.1986 966.815 45.462 969.298 46.6147C971.344 42.6621 972.981 38.29 971.376 33.858C970.57 31.6294 969.162 30.351 967.051 29.4237ZM947.28 60.2224C945.634 65.3358 944.047 69.4366 946.537 74.5127C948.101 75.8795 948.978 76.4972 951.045 76.8416C952.603 72.6705 954.092 67.919 951.923 63.6546C951.164 62.1633 949.777 60.824 948.126 60.4013C947.847 60.3299 947.562 60.2821 947.28 60.2224ZM888.8 90.5767C886.547 94.2977 885.056 98.3821 886.207 102.767C886.855 105.237 888.205 106.904 890.394 108.16C890.535 108.241 890.68 108.315 890.823 108.393C892.992 104.466 894.409 100.625 893.165 96.117C892.471 93.6044 890.997 91.9051 888.8 90.5767ZM928.01 90.4101C925.867 94.0912 924.179 98.341 925.504 102.63C926.329 105.3 927.886 106.672 930.32 107.864C932.395 104.458 933.831 100.935 932.876 96.8721C932.317 94.4951 931.065 92.2491 928.956 90.9278C928.571 90.6868 928.389 90.6031 928.01 90.4101ZM907.728 120.433C906.014 124.214 903.992 129.11 905.583 133.273C906.272 135.074 907.508 136.517 909.307 137.235C909.741 137.408 909.953 137.464 910.375 137.591C912.296 133.909 913.915 130.046 912.548 125.854C911.877 123.796 910.495 121.708 908.475 120.748C908.231 120.632 907.977 120.538 907.728 120.433ZM868.24 121.23C866.821 125.244 864.789 129.9 866.793 134.048C867.561 135.638 868.781 136.842 870.511 137.415C870.991 137.574 871.656 137.697 872.122 137.796C873.546 133.972 875.051 129.523 873.364 125.523C872.576 123.656 870.984 122.092 869.039 121.458C868.775 121.372 868.506 121.306 868.24 121.23ZM888.922 151.329C887.064 155.242 885.461 159.187 886.809 163.552C887.599 166.111 889.235 167.857 891.419 169.299C893.588 165.727 895.102 161.509 893.885 157.293C893.252 155.101 891.858 152.852 889.79 151.749C889.507 151.598 889.212 151.469 888.922 151.329ZM868.434 183.473C866.29 187.225 864.601 191.465 865.877 195.827C866.424 197.698 867.285 198.302 868.632 199.657L871.678 200.213C873.069 196.013 874.612 191.484 872.566 187.206C871.747 185.456 870.258 184.11 868.434 183.473Z"/>
	<path fill="#DABFFF" transform="scale(2 2)" d="M992.029 0L1024 0L1024 1189.2C1023.81 1189.3 1023.62 1189.41 1023.42 1189.51C1015.56 1193.29 995.356 1192.18 985.843 1193.56C975.999 1194.99 965.909 1197.28 956.296 1199.84C863.506 1224.49 782.428 1294.61 748.245 1384.85C738.92 1409.47 732.697 1434.61 730.67 1460.92C729.454 1476.71 730.58 1492.55 729.981 1508.36C728.442 1548.98 714.198 1586.19 689.1 1618.06C670.479 1641.4 646.657 1660.08 619.535 1672.58C593.385 1684.16 565.16 1690.31 536.564 1690.68C521.918 1690.83 507.328 1689.84 492.676 1690.62C452.03 1692.51 412.124 1702.18 375.126 1719.11C346.378 1732.68 319.875 1750.56 296.538 1772.14C292.102 1776.22 281.632 1789.51 276.089 1789.69C272.543 1788.07 265.172 1776.24 262.329 1772.85C256.349 1765.78 249.898 1759.13 243.02 1752.94C222.917 1735.13 198.811 1723.99 180.879 1703.29C156.772 1675.46 152.208 1640.06 139.142 1607.06C128.797 1580.93 113.633 1556.97 95.897 1535.26C77.2956 1512.48 51.6196 1492.73 25.5843 1478.97C18.0494 1474.99 6.59753 1471.83 0.456121 1466.18C0.299588 1466.04 0.15204 1465.88 0 1465.74L0 852.046L4.47274 851.742C141.736 841.711 256.451 753.065 287.561 616.316C293.81 588.844 292.613 562.603 293.809 534.876C295.744 492.836 311.583 452.629 338.839 420.564C374.736 379.146 423.726 354.009 478.796 352.063C500.921 351.282 522.817 353.686 545.004 352.033C614.346 346.867 679.551 313.918 729.293 266.07C741.462 254.364 752.17 241.336 763.188 228.572C813.491 226.635 860.619 213.42 901.236 182.809C906.375 178.935 924.371 166.276 925.248 160.101C925.712 156.832 925.965 155.115 928.68 153.08L932.322 153.724C936.213 150.444 945.72 140.347 947.066 135.575C948.203 131.547 944.775 128.026 946.989 123.747C949.871 121.877 950.615 123.864 953.942 123.748C958.817 120.548 962.473 112.235 965.671 107.224C965.276 105.974 964.951 104.717 964.726 103.426C963.975 99.1164 963.558 95.3015 966.137 91.6229C968.869 91.3467 969.425 92.1432 971.609 93.6405C981.153 79.4677 987.056 45.3212 988.643 28.3646C989.451 19.7285 988.951 11.138 990.586 2.59637L992.029 0ZM972.266 140.402C970.92 145.488 966.999 153.273 970.048 158.175C970.873 159.502 972.209 160.338 973.51 161.145C976.034 157.916 976.29 155.48 975.792 151.47C975.391 148.243 974.733 142.437 972.266 140.402ZM992.885 204.345C990.793 206.975 988.818 210.043 989.274 213.588C989.658 216.572 991.205 218.841 993.605 220.599C993.956 220.857 994.322 221.094 994.687 221.332C997.235 218.843 998.291 216.619 998.412 213.004C998.503 210.289 997.581 208.223 995.975 206.073L992.885 204.345ZM971.65 237.337C970.654 239.937 969.304 243.146 970.531 245.874C971.312 247.611 972.681 248.842 974.543 249.373C975.075 249.525 975.634 249.615 976.18 249.704C977.474 246.922 978.204 244.966 978.274 241.842C977.283 239.735 976.956 238.495 974.556 237.718C973.66 237.428 972.587 237.399 971.65 237.337ZM953.58 445.879C950.767 446.67 949.129 449.592 949.921 452.404C950.713 455.215 953.635 456.852 956.447 456.059C959.257 455.266 960.893 452.346 960.101 449.536C959.31 446.726 956.39 445.089 953.58 445.879Z"/>
	<path fill="#2C2A4A" transform="scale(2 2)" d="M1.17278 1.10049C17.9772 0.988536 35.2246 0.0704594 51.9738 1.28538C36.3084 12.3875 22.7464 19.3653 3.745 22.6677L2.42503 22.2931C-0.77702 18.5714 1.01017 6.01784 1.17278 1.10049Z"/>
	<path fill="#2C2A4A" transform="scale(2 2)" d="M0.948491 129.248C6.02178 128.703 11.0794 128.02 16.1158 127.202C76.8577 117.119 129.776 84.2105 168.841 37.0926C178.259 25.7321 186.248 13.0629 194.838 1.0651C204.704 0.947727 215.584 -0.0520608 225.343 1.20018C221.089 12.8993 213.458 23.6783 206.32 33.7846C176.687 76.3526 136.175 110.19 89.0107 131.769C61.3362 144.854 31.5196 152.815 1.00607 155.268L0.948491 129.248Z"/>
	<path fill="#2C2A4A" transform="scale(2 2)" d="M341.983 0.805617L510.967 0.98009C518.322 0.961822 558.886 -0.301775 562.173 0.81506C562.784 1.02248 563.231 1.55379 563.759 1.92316L564.551 4.89662C559.273 58.9966 534.151 104.954 492.143 139.619C460.848 165.444 420.186 183.406 379.298 184.9C325.946 186.85 284.929 169.302 234.844 203.831C192.092 233.304 195.266 273.509 176.286 315.814C145.738 384.44 75.9281 427.017 0.931096 422.763L0 422.929L0 241.941L0.715466 241.99C36.5243 238.875 71.1225 233.283 105.205 221.521C215.353 183.508 291.842 103.809 341.983 0.805617Z"/>
	<defs>
		<linearGradient id="gradient_0" gradientUnits="userSpaceOnUse" x1="362.36002" y1="50.272758" x2="461.73083" y2="788.54327">
			<stop offset="0" stop-color="#7162B0"/>
			<stop offset="1" stop-color="#8272D4"/>
		</linearGradient>
	</defs>
	<path fill="url(#gradient_0)" transform="scale(2 2)" d="M718.723 1.13636C754.991 0.77573 791.666 0.0275241 827.907 1.19791C829.526 65.9716 822.873 118.184 794.415 177.229C786.076 194.532 775.426 213.633 763.188 228.572C752.17 241.336 741.462 254.364 729.293 266.07C679.551 313.918 614.346 346.867 545.004 352.033C522.817 353.686 500.921 351.282 478.796 352.063C423.726 354.009 374.736 379.146 338.839 420.564C311.583 452.629 295.744 492.836 293.809 534.876C292.613 562.603 293.81 588.844 287.561 616.316C256.451 753.065 141.736 841.711 4.47274 851.742L0 852.046L0 740.379C52.8962 737.489 102.756 714.755 139.626 676.716C178.346 637.427 202.566 584.323 202.071 528.845C214.672 511.093 226.588 491.792 234.458 471.465C240.551 455.731 243.812 439.186 248.324 422.968C259.305 383.501 278.252 350.789 306.628 321.359C347.991 278.873 403.226 252.638 462.292 247.424C476.704 246.215 491.215 247.641 505.656 247.338C560.92 246.179 615.578 219.571 653.365 179.77C699.766 130.896 720.556 67.8013 718.723 1.13636Z"/>
	<path fill="#DABFFF" transform="scale(2 2)" d="M945.946 0.727685L948.966 1.46237C950.175 4.44998 951.837 8.46322 951.325 11.7492C950.933 14.2592 950.247 14.6516 948.288 15.9618L945.732 15.3169C944.957 14.3721 943.768 13.3119 943.465 12.13C942.368 7.84504 943.791 4.40554 945.946 0.727685Z"/>
	<path fill="#DABFFF" transform="scale(2 2)" d="M929.026 46.7324C928.59 46.571 928.153 46.4103 927.728 46.221C925.78 45.3519 924.649 44.1651 923.947 42.1311C922.507 37.9612 923.943 33.1351 925.818 29.3519C927.878 30.0938 929.457 31.3514 930.363 33.4064C932.325 37.8532 930.736 42.5052 929.026 46.7324Z"/>
	<path fill="#DABFFF" transform="scale(2 2)" d="M969.298 46.6147C966.815 45.462 964.919 44.1986 964.095 41.399C962.798 36.9959 964.807 33.0542 967.051 29.4237C969.162 30.351 970.57 31.6294 971.376 33.858C972.981 38.29 971.344 42.6621 969.298 46.6147Z"/>
	<path fill="#DABFFF" transform="scale(2 2)" d="M951.045 76.8416C948.978 76.4972 948.101 75.8795 946.537 74.5127C944.047 69.4366 945.634 65.3358 947.28 60.2224C947.562 60.2821 947.847 60.3299 948.126 60.4013C949.777 60.824 951.164 62.1633 951.923 63.6546C954.092 67.919 952.603 72.6705 951.045 76.8416Z"/>
	<path fill="#DABFFF" transform="scale(2 2)" d="M890.823 108.393C890.68 108.315 890.535 108.241 890.394 108.16C888.205 106.904 886.855 105.237 886.207 102.767C885.056 98.3821 886.547 94.2977 888.8 90.5767C890.997 91.9051 892.471 93.6044 893.165 96.117C894.409 100.625 892.992 104.466 890.823 108.393Z"/>
	<path fill="#DABFFF" transform="scale(2 2)" d="M930.32 107.864C927.886 106.672 926.329 105.3 925.504 102.63C924.179 98.341 925.867 94.0912 928.01 90.4101C928.389 90.6031 928.571 90.6868 928.956 90.9278C931.065 92.2491 932.317 94.4951 932.876 96.8721C933.831 100.935 932.395 104.458 930.32 107.864Z"/>
	<path fill="#DABFFF" transform="scale(2 2)" d="M910.375 137.591C909.953 137.464 909.741 137.408 909.307 137.235C907.508 136.517 906.272 135.074 905.583 133.273C903.992 129.11 906.014 124.214 907.728 120.433C907.977 120.538 908.231 120.632 908.475 120.748C910.495 121.708 911.877 123.796 912.548 125.854C913.915 130.046 912.296 133.909 910.375 137.591Z"/>
	<path fill="#DABFFF" transform="scale(2 2)" d="M872.122 137.796C871.656 137.697 870.991 137.574 870.511 137.415C868.781 136.842 867.561 135.638 866.793 134.048C864.789 129.9 866.821 125.244 868.24 121.23C868.506 121.306 868.775 121.372 869.039 121.458C870.984 122.092 872.576 123.656 873.364 125.523C875.051 129.523 873.546 133.972 872.122 137.796Z"/>
	<path fill="#4F518C" transform="scale(2 2)" d="M0 129.049L0.948491 129.248L1.00607 155.268L0 155.078L0 129.049Z"/>
	<path fill="#FFC9A7" transform="scale(2 2)" d="M973.51 161.145C972.209 160.338 970.873 159.502 970.048 158.175C966.999 153.273 970.92 145.488 972.266 140.402C974.733 142.437 975.391 148.243 975.792 151.47C976.29 155.48 976.034 157.916 973.51 161.145Z"/>
	<path fill="#DABFFF" transform="scale(2 2)" d="M891.419 169.299C889.235 167.857 887.599 166.111 886.809 163.552C885.461 159.187 887.064 155.242 888.922 151.329C889.212 151.469 889.507 151.598 889.79 151.749C891.858 152.852 893.252 155.101 893.885 157.293C895.102 161.509 893.588 165.727 891.419 169.299Z"/>
	<path fill="#DABFFF" transform="scale(2 2)" d="M871.678 200.213L868.632 199.657C867.285 198.302 866.424 197.698 865.877 195.827C864.601 191.465 866.29 187.225 868.434 183.473C870.258 184.11 871.747 185.456 872.566 187.206C874.612 191.484 873.069 196.013 871.678 200.213Z"/>
	<path fill="#FFC9A7" transform="scale(2 2)" d="M994.687 221.332C994.322 221.094 993.956 220.857 993.605 220.599C991.205 218.841 989.658 216.572 989.274 213.588C988.818 210.043 990.793 206.975 992.885 204.345L995.975 206.073C997.581 208.223 998.503 210.289 998.412 213.004C998.291 216.619 997.235 218.843 994.687 221.332Z"/>
	<path fill="#FFC9A7" transform="scale(2 2)" d="M976.18 249.704C975.634 249.615 975.075 249.525 974.543 249.373C972.681 248.842 971.312 247.611 970.531 245.874C969.304 243.146 970.654 239.937 971.65 237.337C972.587 237.399 973.66 237.428 974.556 237.718C976.956 238.495 977.283 239.735 978.274 241.842C978.204 244.966 977.474 246.922 976.18 249.704Z"/>
	<path fill="#FFC9A7" transform="scale(2 2)" d="M956.447 456.059C953.635 456.852 950.713 455.215 949.921 452.404C949.129 449.592 950.767 446.67 953.58 445.879C956.39 445.089 959.31 446.726 960.101 449.536C960.893 452.346 959.257 455.266 956.447 456.059Z"/>
	<path fill="#907AD6" transform="scale(2 2)" d="M0 635.745C5.75773 635.188 11.5708 635.099 17.3386 634.533C94.7048 626.941 153.736 587.869 202.071 528.845C202.566 584.323 178.346 637.427 139.626 676.716C102.756 714.755 52.8962 737.489 0 740.379L0 635.745Z"/>
	<path fill="#907AD6" transform="scale(2 2)" d="M276.089 1789.69C281.632 1789.51 292.102 1776.22 296.538 1772.14C319.875 1750.56 346.378 1732.68 375.126 1719.11C412.124 1702.18 452.03 1692.51 492.676 1690.62C507.328 1689.84 521.918 1690.83 536.564 1690.68C565.16 1690.31 593.385 1684.16 619.535 1672.58C646.657 1660.08 670.479 1641.4 689.1 1618.06C714.198 1586.19 728.442 1548.98 729.981 1508.36C730.58 1492.55 729.454 1476.71 730.67 1460.92C732.697 1434.61 738.92 1409.47 748.245 1384.85C782.428 1294.61 863.506 1224.49 956.296 1199.84C965.909 1197.28 975.999 1194.99 985.843 1193.56C995.356 1192.18 1015.56 1193.29 1023.42 1189.51C1023.62 1189.41 1023.81 1189.3 1024 1189.2L1024 1299.25L1024 1404.3C1016.72 1408.96 1001.7 1407.99 992.881 1409.59C985.67 1410.9 978.471 1412.79 971.394 1414.68C946.43 1421.19 922.533 1431.26 900.442 1444.58C880.028 1457.09 859.796 1473 842.92 1489.99C839.038 1493.9 824.362 1513.08 821.132 1513.87C818.965 1521.58 811.84 1529.98 807.643 1536.96C801.713 1546.83 795.978 1557.3 791.576 1567.95C782.559 1589.76 778.197 1612.73 770.55 1634.92C751.759 1689.44 712.29 1737.98 661.916 1766.34C629.734 1784.46 592.74 1795.26 555.704 1794.97C537.12 1794.82 519.055 1793.33 500.505 1795.87C411.365 1808.08 338.552 1878.1 314.537 1963.53C306.982 1990.42 304.093 2018.39 305.994 2046.25C305.364 2046.68 304.761 2047.01 304.052 2047.3C299.219 2049.29 203.401 2048.6 198.912 2046.63C198.155 2047.04 197.371 2047.39 196.533 2047.59C187.761 2049.72 154.767 2048.04 143.489 2048.05C105.082 2048.06 63.5623 2049.7 25.4964 2047.9C23.3688 2047.8 21.8631 2047.41 20.033 2046.27C19.2315 2046.82 18.4461 2047.22 17.5033 2047.49C12.7504 2048.87 4.29036 2048.88 0 2046.25L0 1724.57C3.92136 1727.23 18.0915 1735.31 22.4465 1734.89L23.781 1733.72C24.7839 1736.62 25.4936 1737.8 27.9864 1739.68L30.4568 1740.08L31.8197 1739.08C32.2264 1740.06 32.6999 1741.79 33.2902 1742.62C35.2798 1745.43 44.1561 1749.94 47.3782 1752.3C56.682 1759.21 65.3119 1766.98 73.1525 1775.51C87.8028 1791.35 101.588 1809.83 110.399 1829.63C114.332 1838.47 117.134 1847.82 121.15 1856.61C126.198 1857.12 148.533 1842.92 154.999 1839.96C173.048 1831.65 192.131 1825.79 211.738 1822.55C220.422 1821.14 231.939 1821.89 239.917 1818.55C244.55 1820.06 250.335 1819.22 254.916 1817.86C255.32 1817.7 255.491 1817.66 255.86 1817.34C259.639 1814.03 275.621 1793.79 276.089 1789.69Z"/>
	<path fill="#DABFFF" transform="scale(2 2)" d="M821.132 1513.87C824.362 1513.08 839.038 1493.9 842.92 1489.99C859.796 1473 880.028 1457.09 900.442 1444.58C922.533 1431.26 946.43 1421.19 971.394 1414.68C978.471 1412.79 985.67 1410.9 992.881 1409.59C1001.7 1407.99 1016.72 1408.96 1024 1404.3L1024 1505.2C1023.81 1505.29 1023.61 1505.39 1023.42 1505.48C1016.15 1508.62 997.051 1508.16 988.004 1509.24C980.853 1510.1 973.757 1511.37 966.754 1513.06C896.064 1529.5 821.537 1583.15 792.7 1651.22C785.441 1668.36 779.925 1686.2 772.076 1703.08C747.865 1755.16 707.535 1799.55 653.679 1821.59C637.614 1828.16 620.681 1833.4 603.61 1836.52C588.246 1839.33 572.582 1840.86 557.367 1844.39C485.519 1861.05 424.355 1910.04 395.637 1978.48C386.507 2000.24 381.255 2022.83 379.053 2046.28C377.946 2046.95 376.759 2047.5 375.478 2047.74C368.03 2049.12 310.304 2048.95 305.994 2046.25C304.093 2018.39 306.982 1990.42 314.537 1963.53C338.552 1878.1 411.365 1808.08 500.505 1795.87C519.055 1793.33 537.12 1794.82 555.704 1794.97C592.74 1795.26 629.734 1784.46 661.916 1766.34C712.29 1737.98 751.759 1689.44 770.55 1634.92C778.197 1612.73 782.559 1589.76 791.576 1567.95C795.978 1557.3 801.713 1546.83 807.643 1536.96C811.84 1529.98 818.965 1521.58 821.132 1513.87Z"/>
	<path fill="#2C2A4A" transform="scale(2 2)" d="M0 1465.74C0.15204 1465.88 0.299588 1466.04 0.456121 1466.18C6.59753 1471.83 18.0494 1474.99 25.5843 1478.97C51.6196 1492.73 77.2956 1512.48 95.897 1535.26C113.633 1556.97 128.797 1580.93 139.142 1607.06C152.208 1640.06 156.772 1675.46 180.879 1703.29C198.811 1723.99 222.917 1735.13 243.02 1752.94C249.898 1759.13 256.349 1765.78 262.329 1772.85C265.172 1776.24 272.543 1788.07 276.089 1789.69C275.621 1793.79 259.639 1814.03 255.86 1817.34C255.491 1817.66 255.32 1817.7 254.916 1817.86C250.335 1819.22 244.55 1820.06 239.917 1818.55C231.939 1821.89 220.422 1821.14 211.738 1822.55C192.131 1825.79 173.048 1831.65 154.999 1839.96C148.533 1842.92 126.198 1857.12 121.15 1856.61C117.134 1847.82 114.332 1838.47 110.399 1829.63C101.588 1809.83 87.8028 1791.35 73.1525 1775.51C65.3119 1766.98 56.682 1759.21 47.3782 1752.3C44.1561 1749.94 35.2798 1745.43 33.2902 1742.62C32.6999 1741.79 32.2264 1740.06 31.8197 1739.08C32.0644 1736.07 32.0994 1732.67 30.7366 1729.89C29.7549 1727.89 29.275 1727.07 27.1307 1726.3C24.7938 1728.65 24.6516 1730.57 23.781 1733.72L22.4465 1734.89C18.0915 1735.31 3.92136 1727.23 0 1724.57L0 1465.74ZM8.13572 1492.44C6.08635 1497.06 4.07829 1503.82 6.05273 1508.83C6.39706 1509.7 6.78316 1510.17 7.39773 1510.87C9.13445 1511.09 9.23268 1511.19 10.7211 1510.31C12.8557 1508.62 13.4628 1507.24 13.86 1504.51C14.3 1501.48 13.0648 1497.16 11.1138 1494.83C10.3 1493.86 9.27096 1493.01 8.13572 1492.44ZM45.5379 1493.46C43.5383 1497.84 41.9569 1504.08 44.0458 1508.78C44.4367 1509.66 44.9674 1510.35 45.6382 1511.02C47.167 1511.16 47.2364 1511.18 48.541 1510.38C50.6454 1508.59 51.6625 1506.74 51.886 1504C52.1074 1501.29 51.0912 1498.22 49.4102 1496.08C48.4361 1494.85 46.9898 1494.01 45.5379 1493.46ZM27.0087 1525.47C24.7267 1529.72 23.0645 1535.63 24.4537 1540.47C24.7524 1541.51 25.2117 1542.41 25.7737 1543.33C27.3867 1543.82 27.4827 1544.01 29.0094 1543.37C30.9729 1541.82 31.5556 1540.52 31.9024 1538.01C32.3229 1534.95 31.0778 1529.53 29.0002 1527.24C28.3851 1526.56 27.7305 1526.02 27.0087 1525.47ZM66.4076 1525.68C63.6158 1529.16 62.4815 1533.52 63.0015 1537.98C63.1633 1539.37 63.7659 1540.69 64.3529 1541.95L66.34 1543.28L68.4993 1542.79C70.5874 1541.01 71.4164 1539.32 71.5126 1536.5C71.634 1532.95 70.4917 1529.32 67.8776 1526.86C67.4152 1526.43 66.9369 1526.03 66.4076 1525.68ZM46.3961 1557.48C44.2916 1562.09 42.6337 1569.17 44.5727 1574.12C44.89 1574.93 45.3737 1575.4 45.9816 1576C47.2278 1575.95 47.8925 1575.95 48.9248 1575.22C51.1219 1572.54 51.7994 1569.73 51.4622 1566.21C51.2007 1563.49 50.3567 1560.21 48.091 1558.49C47.5502 1558.08 46.9971 1557.78 46.3961 1557.48ZM7.09624 1558.11C5.20047 1562.87 3.92002 1568.84 5.66822 1573.88C5.93789 1574.66 6.34918 1575.2 6.84377 1575.85C8.82977 1576.21 8.71059 1576.33 10.5 1575.1C12.4471 1573.02 13.4306 1570.95 13.3392 1567.99C13.2581 1565.36 12.3108 1561.79 10.4088 1559.89C9.49709 1558.98 8.31899 1558.44 7.09624 1558.11ZM84.0636 1558.12C81.926 1563.67 81.3819 1568.67 82.9901 1574.45L84.5643 1576.22C85.8127 1576.09 86.5121 1576.11 87.4997 1575.26C89.6327 1572.84 90.5086 1570.7 90.2547 1567.38C90.0486 1564.68 89.02 1562.57 87.6943 1560.27C86.5331 1559.43 85.4544 1558.53 84.0636 1558.12ZM26.0415 1591.14C24.0623 1596.75 23.2262 1602.44 25.3562 1608.14L27.2122 1609.33L29.5004 1608.1C31.3664 1606.08 32.1218 1603.66 32.0165 1600.85C31.9111 1598.04 30.8736 1595.81 29.5782 1593.36C28.4522 1592.5 27.4137 1591.58 26.0415 1591.14ZM65.2824 1591.13C63.119 1596.62 62.2045 1601.75 63.9234 1607.51L65.5385 1609.2C66.7618 1609.08 67.5243 1609.09 68.53 1608.31C70.5955 1606.11 71.5331 1604.1 71.4686 1600.98C71.4116 1598.22 70.4476 1594.42 68.2908 1592.54C67.4032 1591.77 66.3952 1591.44 65.2824 1591.13ZM8.40958 1624.68C5.66916 1628.82 3.95121 1633.8 4.85742 1638.86C5.30533 1641.36 5.74025 1641.71 7.72236 1643.04L10.1024 1642.32C12.1299 1640.91 12.6286 1640.09 13.0056 1637.51C13.449 1634.47 12.5062 1629.39 10.6039 1626.96C9.93882 1626.11 9.22419 1625.38 8.40958 1624.68ZM46.7435 1624.41C44.2209 1629 42.9481 1633.95 44.3464 1639.2C44.9596 1641.5 45.4382 1641.87 47.3736 1642.97L48.8451 1642.47C50.9205 1640.33 51.6338 1637.84 51.6296 1634.9C51.6255 1631.95 50.4897 1627.94 48.4102 1625.78C47.9098 1625.25 47.3321 1624.82 46.7435 1624.41ZM84.7989 1625.36C82.4942 1629.77 80.777 1635.65 82.7233 1640.57C83.0663 1641.44 83.7099 1642.16 84.3669 1642.8C85.4923 1642.83 86.1047 1642.85 87.0932 1642.28C89.054 1640.71 89.5719 1638.97 89.8646 1636.48C90.1841 1633.76 89.2204 1629.43 87.399 1627.36C86.6932 1626.55 85.7498 1625.85 84.7989 1625.36ZM26.6036 1658.45C24.4014 1662.54 22.5894 1669.15 24.4492 1673.71C24.7941 1674.56 25.4132 1675.27 26.0481 1675.91C27.6185 1676.13 27.8098 1676.04 29.265 1675.37C31.1837 1673.8 31.3229 1672.85 31.6007 1670.39C31.9807 1667.03 30.893 1663.76 29.6268 1660.71C28.6418 1659.9 27.7236 1659.07 26.6036 1658.45ZM65.7359 1658.39C62.8904 1663.67 62.2736 1668.28 63.7067 1674.11L65.2655 1675.8C66.339 1675.83 67.0548 1675.9 68.0111 1675.36C69.9479 1673.93 70.5799 1673.03 70.9999 1670.52C71.5046 1667.49 70.4903 1662.78 68.5792 1660.36C67.8616 1659.46 66.7733 1658.85 65.7359 1658.39ZM104.946 1658.24C102.956 1663.22 101.899 1668.92 103.54 1674.17L105.33 1676.14C106.387 1675.91 107.164 1675.78 108.142 1675.32C110.031 1673.81 110.131 1672.99 110.407 1670.6C110.764 1667.51 109.912 1662.65 107.896 1660.21C107.128 1659.28 106.05 1658.67 104.946 1658.24ZM46.7498 1692.42C44.4196 1696.52 42.7599 1702.08 44.1675 1706.82C44.4601 1707.81 44.9112 1708.66 45.4675 1709.51L47.153 1710.17L48.9969 1709.24C50.9157 1707.19 51.8946 1704.83 51.7703 1701.92C51.6383 1698.84 50.8023 1695.66 48.3641 1693.62C47.8478 1693.19 47.3005 1692.81 46.7498 1692.42ZM85.1271 1692.48C82.4732 1697.53 80.8142 1702.5 82.4879 1708.17L84.1244 1709.93C85.4307 1709.96 86.1665 1710.01 87.3675 1709.41C89.1686 1707.86 89.9321 1706.39 90.0906 1703.96C90.3032 1700.69 89.2608 1696.45 86.9937 1694.03C86.4419 1693.44 85.8169 1692.9 85.1271 1692.48ZM7.29024 1693.27C5.13799 1697.81 3.23389 1702.86 4.98467 1707.87C5.31825 1708.83 6.47068 1709.51 7.2365 1710.17C8.40724 1710.04 9.37953 1709.95 10.4993 1709.55C12.3616 1707.86 13.2857 1706.09 13.3339 1703.49C13.3858 1700.69 12.0964 1696.77 10.071 1694.78C9.23898 1693.96 8.38751 1693.59 7.29024 1693.27ZM65.9338 1726.3C63.1452 1731.65 62.3788 1736.18 63.6313 1742.1L65.1253 1743.93C66.2399 1743.91 66.9672 1743.95 67.9321 1743.34C69.4272 1742.6 69.8265 1742.66 70.4268 1741C71.7087 1737.46 71.1513 1732.41 69.3281 1729.12C68.5496 1727.72 67.4182 1726.87 65.9338 1726.3Z"/>
	<path fill="#DABFFF" transform="scale(2 2)" d="M10.7211 1510.31C9.23268 1511.19 9.13445 1511.09 7.39773 1510.87C6.78316 1510.17 6.39706 1509.7 6.05273 1508.83C4.07829 1503.82 6.08635 1497.06 8.13572 1492.44C9.27096 1493.01 10.3 1493.86 11.1138 1494.83C13.0648 1497.16 14.3 1501.48 13.86 1504.51C13.4628 1507.24 12.8557 1508.62 10.7211 1510.31Z"/>
	<path fill="#DABFFF" transform="scale(2 2)" d="M48.541 1510.38C47.2364 1511.18 47.167 1511.16 45.6382 1511.02C44.9674 1510.35 44.4367 1509.66 44.0458 1508.78C41.9569 1504.08 43.5383 1497.84 45.5379 1493.46C46.9898 1494.01 48.4361 1494.85 49.4102 1496.08C51.0912 1498.22 52.1074 1501.29 51.886 1504C51.6625 1506.74 50.6454 1508.59 48.541 1510.38Z"/>
	<path fill="#907AD6" transform="scale(2 2)" d="M379.053 2046.28C381.255 2022.83 386.507 2000.24 395.637 1978.48C424.355 1910.04 485.519 1861.05 557.367 1844.39C572.582 1840.86 588.246 1839.33 603.61 1836.52C620.681 1833.4 637.614 1828.16 653.679 1821.59C707.535 1799.55 747.865 1755.16 772.076 1703.08C779.925 1686.2 785.441 1668.36 792.7 1651.22C821.537 1583.15 896.064 1529.5 966.754 1513.06C973.757 1511.37 980.853 1510.1 988.004 1509.24C997.051 1508.16 1016.15 1508.62 1023.42 1505.48C1023.61 1505.39 1023.81 1505.29 1024 1505.2L1024 1617.41C1023.83 1617.52 1023.67 1617.63 1023.49 1617.73C1017.1 1621.28 995.186 1618.6 986.714 1619.86C916.601 1630.23 859.664 1677.84 837.937 1745.38C833.71 1758.51 831.153 1772.12 826.954 1785.23C818.25 1812.41 800.819 1835.32 775.264 1848.54C727.774 1873.12 692.044 1856.61 644.144 1859.1C563.067 1863.96 493.206 1917.9 467.992 1995.11C463.541 2008.9 460.802 2023.18 459.836 2037.64C459.507 2040.46 458.967 2043.41 459.006 2046.25C457.918 2046.93 456.748 2047.49 455.479 2047.73C447.682 2049.21 383.453 2049.04 379.053 2046.28Z"/>
	<path fill="#DABFFF" transform="scale(2 2)" d="M29.0094 1543.37C27.4827 1544.01 27.3867 1543.82 25.7737 1543.33C25.2117 1542.41 24.7524 1541.51 24.4537 1540.47C23.0645 1535.63 24.7267 1529.72 27.0087 1525.47C27.7305 1526.02 28.3851 1526.56 29.0002 1527.24C31.0778 1529.53 32.3229 1534.95 31.9024 1538.01C31.5556 1540.52 30.9729 1541.82 29.0094 1543.37Z"/>
	<path fill="#DABFFF" transform="scale(2 2)" d="M68.4993 1542.79L66.34 1543.28L64.3529 1541.95C63.7659 1540.69 63.1633 1539.37 63.0015 1537.98C62.4815 1533.52 63.6158 1529.16 66.4076 1525.68C66.9369 1526.03 67.4152 1526.43 67.8776 1526.86C70.4917 1529.32 71.634 1532.95 71.5126 1536.5C71.4164 1539.32 70.5874 1541.01 68.4993 1542.79Z"/>
	<path fill="#DABFFF" transform="scale(2 2)" d="M48.9248 1575.22C47.8925 1575.95 47.2278 1575.95 45.9816 1576C45.3737 1575.4 44.89 1574.93 44.5727 1574.12C42.6337 1569.17 44.2916 1562.09 46.3961 1557.48C46.9971 1557.78 47.5502 1558.08 48.091 1558.49C50.3567 1560.21 51.2007 1563.49 51.4622 1566.21C51.7994 1569.73 51.1219 1572.54 48.9248 1575.22Z"/>
	<path fill="#DABFFF" transform="scale(2 2)" d="M10.5 1575.1C8.71059 1576.33 8.82977 1576.21 6.84377 1575.85C6.34918 1575.2 5.93789 1574.66 5.66822 1573.88C3.92002 1568.84 5.20047 1562.87 7.09624 1558.11C8.31899 1558.44 9.49709 1558.98 10.4088 1559.89C12.3108 1561.79 13.2581 1565.36 13.3392 1567.99C13.4306 1570.95 12.4471 1573.02 10.5 1575.1Z"/>
	<path fill="#DABFFF" transform="scale(2 2)" d="M87.4997 1575.26C86.5121 1576.11 85.8127 1576.09 84.5643 1576.22L82.9901 1574.45C81.3819 1568.67 81.926 1563.67 84.0636 1558.12C85.4544 1558.53 86.5331 1559.43 87.6943 1560.27C89.02 1562.57 90.0486 1564.68 90.2547 1567.38C90.5086 1570.7 89.6327 1572.84 87.4997 1575.26Z"/>
	<path fill="#DABFFF" transform="scale(2 2)" d="M29.5004 1608.1L27.2122 1609.33L25.3562 1608.14C23.2262 1602.44 24.0623 1596.75 26.0415 1591.14C27.4137 1591.58 28.4522 1592.5 29.5782 1593.36C30.8736 1595.81 31.9111 1598.04 32.0165 1600.85C32.1218 1603.66 31.3664 1606.08 29.5004 1608.1Z"/>
	<path fill="#DABFFF" transform="scale(2 2)" d="M68.53 1608.31C67.5243 1609.09 66.7618 1609.08 65.5385 1609.2L63.9234 1607.51C62.2045 1601.75 63.119 1596.62 65.2824 1591.13C66.3952 1591.44 67.4032 1591.77 68.2908 1592.54C70.4476 1594.42 71.4116 1598.22 71.4686 1600.98C71.5331 1604.1 70.5955 1606.11 68.53 1608.31Z"/>
	<path fill="#2C2A4A" transform="scale(2 2)" d="M459.836 2037.64C460.802 2023.18 463.541 2008.9 467.992 1995.11C493.206 1917.9 563.067 1863.96 644.144 1859.1C692.044 1856.61 727.774 1873.12 775.264 1848.54C800.819 1835.32 818.25 1812.41 826.954 1785.23C831.153 1772.12 833.71 1758.51 837.937 1745.38C859.664 1677.84 916.601 1630.23 986.714 1619.86C995.186 1618.6 1017.1 1621.28 1023.49 1617.73C1023.67 1617.63 1023.83 1617.52 1024 1617.41L1024 1800.23C1023.83 1800.34 1023.67 1800.44 1023.49 1800.54C1019.91 1802.51 1014.9 1802.35 1010.88 1802.74C987.721 1804.94 964.406 1807.99 941.997 1814.52C822.357 1849.36 732.242 1934.86 680.04 2046.78L680.04 2047.69C667.425 2048.6 654.425 2048.02 641.769 2048.02L573.393 2048.06L501.898 2048.06C489.358 2048.05 476.438 2048.67 463.941 2047.87C462.03 2047.75 460.635 2047.28 459.006 2046.25C458.967 2043.41 459.507 2040.46 459.836 2037.64Z"/>
	<path fill="#DABFFF" transform="scale(2 2)" d="M10.1024 1642.32L7.72236 1643.04C5.74025 1641.71 5.30533 1641.36 4.85742 1638.86C3.95121 1633.8 5.66916 1628.82 8.40958 1624.68C9.22419 1625.38 9.93882 1626.11 10.6039 1626.96C12.5062 1629.39 13.449 1634.47 13.0056 1637.51C12.6286 1640.09 12.1299 1640.91 10.1024 1642.32Z"/>
	<path fill="#DABFFF" transform="scale(2 2)" d="M48.8451 1642.47L47.3736 1642.97C45.4382 1641.87 44.9596 1641.5 44.3464 1639.2C42.9481 1633.95 44.2209 1629 46.7435 1624.41C47.3321 1624.82 47.9098 1625.25 48.4102 1625.78C50.4897 1627.94 51.6255 1631.95 51.6296 1634.9C51.6338 1637.84 50.9205 1640.33 48.8451 1642.47Z"/>
	<path fill="#DABFFF" transform="scale(2 2)" d="M87.0932 1642.28C86.1047 1642.85 85.4923 1642.83 84.3669 1642.8C83.7099 1642.16 83.0663 1641.44 82.7233 1640.57C80.777 1635.65 82.4942 1629.77 84.7989 1625.36C85.7498 1625.85 86.6932 1626.55 87.399 1627.36C89.2204 1629.43 90.1841 1633.76 89.8646 1636.48C89.5719 1638.97 89.054 1640.71 87.0932 1642.28Z"/>
	<path fill="#DABFFF" transform="scale(2 2)" d="M29.265 1675.37C27.8098 1676.04 27.6185 1676.13 26.0481 1675.91C25.4132 1675.27 24.7941 1674.56 24.4492 1673.71C22.5894 1669.15 24.4014 1662.54 26.6036 1658.45C27.7236 1659.07 28.6418 1659.9 29.6268 1660.71C30.893 1663.76 31.9807 1667.03 31.6007 1670.39C31.3229 1672.85 31.1837 1673.8 29.265 1675.37Z"/>
	<path fill="#DABFFF" transform="scale(2 2)" d="M68.0111 1675.36C67.0548 1675.9 66.339 1675.83 65.2655 1675.8L63.7067 1674.11C62.2736 1668.28 62.8904 1663.67 65.7359 1658.39C66.7733 1658.85 67.8616 1659.46 68.5792 1660.36C70.4903 1662.78 71.5046 1667.49 70.9999 1670.52C70.5799 1673.03 69.9479 1673.93 68.0111 1675.36Z"/>
	<path fill="#DABFFF" transform="scale(2 2)" d="M108.142 1675.32C107.164 1675.78 106.387 1675.91 105.33 1676.14L103.54 1674.17C101.899 1668.92 102.956 1663.22 104.946 1658.24C106.05 1658.67 107.128 1659.28 107.896 1660.21C109.912 1662.65 110.764 1667.51 110.407 1670.6C110.131 1672.99 110.031 1673.81 108.142 1675.32Z"/>
	<path fill="#DABFFF" transform="scale(2 2)" d="M48.9969 1709.24L47.153 1710.17L45.4675 1709.51C44.9112 1708.66 44.4601 1707.81 44.1675 1706.82C42.7599 1702.08 44.4196 1696.52 46.7498 1692.42C47.3005 1692.81 47.8478 1693.19 48.3641 1693.62C50.8023 1695.66 51.6383 1698.84 51.7703 1701.92C51.8946 1704.83 50.9157 1707.19 48.9969 1709.24Z"/>
	<path fill="#DABFFF" transform="scale(2 2)" d="M87.3675 1709.41C86.1665 1710.01 85.4307 1709.96 84.1244 1709.93L82.4879 1708.17C80.8142 1702.5 82.4732 1697.53 85.1271 1692.48C85.8169 1692.9 86.4419 1693.44 86.9937 1694.03C89.2608 1696.45 90.3032 1700.69 90.0906 1703.96C89.9321 1706.39 89.1686 1707.86 87.3675 1709.41Z"/>
	<path fill="#DABFFF" transform="scale(2 2)" d="M10.4993 1709.55C9.37953 1709.95 8.40724 1710.04 7.2365 1710.17C6.47068 1709.51 5.31825 1708.83 4.98467 1707.87C3.23389 1702.86 5.13799 1697.81 7.29024 1693.27C8.38751 1693.59 9.23898 1693.96 10.071 1694.78C12.0964 1696.77 13.3858 1700.69 13.3339 1703.49C13.2857 1706.09 12.3616 1707.86 10.4993 1709.55Z"/>
	<path fill="#DABFFF" transform="scale(2 2)" d="M23.781 1733.72C24.6516 1730.57 24.7938 1728.65 27.1307 1726.3C29.275 1727.07 29.7549 1727.89 30.7366 1729.89C32.0994 1732.67 32.0644 1736.07 31.8197 1739.08L30.4568 1740.08L27.9864 1739.68C25.4936 1737.8 24.7839 1736.62 23.781 1733.72Z"/>
	<path fill="#DABFFF" transform="scale(2 2)" d="M67.9321 1743.34C66.9672 1743.95 66.2399 1743.91 65.1253 1743.93L63.6313 1742.1C62.3788 1736.18 63.1452 1731.65 65.9338 1726.3C67.4182 1726.87 68.5496 1727.72 69.3281 1729.12C71.1513 1732.41 71.7087 1737.46 70.4268 1741C69.8265 1742.66 69.4272 1742.6 67.9321 1743.34Z"/>
	<path fill="#FADFB9" transform="scale(2 2)" d="M680.04 2046.78C732.242 1934.86 822.357 1849.36 941.997 1814.52C964.406 1807.99 987.721 1804.94 1010.88 1802.74C1014.9 1802.35 1019.91 1802.51 1023.49 1800.54C1023.67 1800.44 1023.83 1800.34 1024 1800.23L1024 1813.38C1023.83 1813.49 1023.67 1813.61 1023.5 1813.71C1017.56 1817.23 1002.95 1816.43 995.789 1817.09C979.46 1818.6 962.19 1822.05 946.425 1826.58C853.82 1853.53 774.276 1913.43 722.795 1994.99C714.447 2007.95 699.425 2032.32 695.059 2046.59L694.89 2047.64C689.884 2048.12 685.044 2047.94 680.04 2047.69L680.04 2046.78Z"/>
	<path fill="#2C2A4A" transform="scale(2 2)" d="M695.059 2046.59C699.425 2032.32 714.447 2007.95 722.795 1994.99C774.276 1913.43 853.82 1853.53 946.425 1826.58C962.19 1822.05 979.46 1818.6 995.789 1817.09C1002.95 1816.43 1017.56 1817.23 1023.5 1813.71C1023.67 1813.61 1023.83 1813.49 1024 1813.38L1024 1834.21C1023.81 1834.31 1023.62 1834.41 1023.42 1834.51C1015.58 1838.27 994.572 1838.35 984.456 1840C971.593 1842.1 958.654 1844.8 946.189 1848.61C865.16 1874.15 795.346 1926.71 748.406 1997.53C737.792 2013.22 728.9 2029.94 719.865 2046.57C711.881 2047.54 703.057 2047.46 695.059 2046.59Z"/>
	<path fill="#FADFB9" transform="scale(2 2)" d="M719.865 2046.57C728.9 2029.94 737.792 2013.22 748.406 1997.53C795.346 1926.71 865.16 1874.15 946.189 1848.61C958.654 1844.8 971.593 1842.1 984.456 1840C994.572 1838.35 1015.58 1838.27 1023.42 1834.51C1023.62 1834.41 1023.81 1834.31 1024 1834.21L1024 1848.75L1023.12 1848.92C936.964 1850.13 857.376 1895.02 798.552 1955.45C773.927 1980.75 749.875 2013.06 734.951 2045.13L734.031 2046.75C729.621 2048.65 724.628 2047.98 719.975 2047.64L719.865 2046.57Z"/>
	<path fill="#2C2A4A" transform="scale(2 2)" d="M734.951 2045.13C749.875 2013.06 773.927 1980.75 798.552 1955.45C857.376 1895.02 936.964 1850.13 1023.12 1848.92L1024 1848.75L1024 1874.93L1023.23 1874.94L1022.53 1875.12C1005.36 1879.24 987.495 1879.23 969.173 1884.2C899.108 1903.24 836.828 1950.73 798.342 2012.17C791.46 2023.15 786.146 2036.13 778.695 2046.53C777.924 2046.68 777.21 2046.81 776.425 2046.87C769.109 2047.42 739.222 2049.07 734.951 2045.13Z"/>
	<path fill="#FADFB9" transform="scale(2 2)" d="M1023.23 1874.94L1024 1874.93L1024 1888.74L1022.97 1888.86C955.554 1891 890.2 1925.06 844.54 1973.86C824.458 1995.16 807.422 2019.15 793.918 2045.12L792.998 2046.74C788.585 2048.67 783.537 2047.97 778.873 2047.63L778.695 2046.53C786.146 2036.13 791.46 2023.15 798.342 2012.17C836.828 1950.73 899.108 1903.24 969.173 1884.2C987.495 1879.23 1005.36 1879.24 1022.53 1875.12L1023.23 1874.94Z"/>
	<path fill="#2C2A4A" transform="scale(2 2)" d="M793.918 2045.12C807.422 2019.15 824.458 1995.16 844.54 1973.86C890.2 1925.06 955.554 1891 1022.97 1888.86L1024 1888.74L1024 1915.62L1022.84 1915.4C952.914 1924.03 896.414 1954.25 852.796 2010.26C843.647 2022.01 837.035 2035.38 828.113 2047.12C821.114 2046.89 798.486 2049.45 793.918 2045.12Z"/>
	<path fill="#FADFB9" transform="scale(2 2)" d="M828.113 2047.12C837.035 2035.38 843.647 2022.01 852.796 2010.26C896.414 1954.25 952.914 1924.03 1022.84 1915.4L1024 1915.62L1024 1927.22C1023.81 1927.32 1023.61 1927.42 1023.42 1927.52C1015.26 1931.29 998.362 1931.94 988.571 1934.28C951.551 1943.13 915.311 1964.39 887.866 1990.45C878.368 1999.47 868.679 2009.48 860.99 2020.11C856.157 2026.8 848.496 2041.94 843.069 2046.63C838.513 2048.74 832.994 2047.98 828.113 2047.78L828.113 2047.12Z"/>
	<path fill="#2C2A4A" transform="scale(2 2)" d="M843.069 2046.63C848.496 2041.94 856.157 2026.8 860.99 2020.11C868.679 2009.48 878.368 1999.47 887.866 1990.45C915.311 1964.39 951.551 1943.13 988.571 1934.28C998.362 1931.94 1015.26 1931.29 1023.42 1927.52C1023.61 1927.42 1023.81 1927.32 1024 1927.22L1024 1939.24C1023.81 1939.35 1023.62 1939.47 1023.42 1939.58C1015.89 1943.67 1003.18 1943.74 994.614 1945.63C982.762 1948.25 970.523 1951.91 959.377 1956.75C927.404 1970.62 896.962 1994.6 875.181 2021.74C869.613 2028.68 863.34 2041.25 856.964 2046.59C856.843 2046.65 856.723 2046.71 856.599 2046.76C851.982 2048.65 847.637 2048.44 843.069 2046.63Z"/>
	<path fill="#FADFB9" transform="scale(2 2)" d="M856.964 2046.59C863.34 2041.25 869.613 2028.68 875.181 2021.74C896.962 1994.6 927.404 1970.62 959.377 1956.75C970.523 1951.91 982.762 1948.25 994.614 1945.63C1003.18 1943.74 1015.89 1943.67 1023.42 1939.58C1023.62 1939.47 1023.81 1939.35 1024 1939.24L1024 1952.22C1023.81 1952.33 1023.61 1952.43 1023.42 1952.53C1013.41 1957.43 997.647 1957.4 986.366 1960.8C939.426 1975.08 899.179 2005.76 872.956 2047.23C867.532 2048.24 862.168 2048.77 856.964 2046.59Z"/>
	<path fill="#2C2A4A" transform="scale(2 2)" d="M872.956 2047.23C899.179 2005.76 939.426 1975.08 986.366 1960.8C997.647 1957.4 1013.41 1957.43 1023.42 1952.53C1023.61 1952.43 1023.81 1952.33 1024 1952.22L1024 1972.18C1023.81 1972.28 1023.62 1972.39 1023.42 1972.48C1015.12 1976.51 1003.63 1975.92 994.606 1978.61C954.505 1990.57 921.859 2013.92 896.907 2047.3L894.837 2047.18C888.792 2048.68 880.989 2048.48 874.917 2047.21L872.956 2047.23Z"/>
	<path fill="#FADFB9" transform="scale(2 2)" d="M896.907 2047.3C921.859 2013.92 954.505 1990.57 994.606 1978.61C1003.63 1975.92 1015.12 1976.51 1023.42 1972.48C1023.62 1972.39 1023.81 1972.28 1024 1972.18L1024 1984.4L1020.92 1985.52L1020.27 1985.77C1013.1 1988.46 1004.91 1988.89 997.477 1990.89C976.268 1996.57 955.055 2007.97 937.831 2021.49C930.38 2027.34 918.933 2042.98 913.039 2046.65C908.022 2048.9 902.175 2048.14 896.907 2047.3Z"/>
	<path fill="#2C2A4A" transform="scale(2 2)" d="M1020.92 1985.52L1024 1984.4L1024 2007.81L1022.84 2007.71C1022.65 2007.77 1022.46 2007.83 1022.27 2007.89C1017.85 2009.26 1013.08 2009.31 1008.54 2010.34C992.834 2013.91 976.798 2019.8 963.508 2029.12C956.46 2034.06 950.182 2042.64 942.995 2046.68C942.501 2046.93 942.474 2046.95 941.89 2047.18C936.107 2049.46 918.519 2049.09 913.039 2046.65C918.933 2042.98 930.38 2027.34 937.831 2021.49C955.055 2007.97 976.268 1996.57 997.477 1990.89C1004.91 1988.89 1013.1 1988.46 1020.27 1985.77L1020.92 1985.52Z"/>
	<path fill="#FADFB9" transform="scale(2 2)" d="M942.995 2046.68C950.182 2042.64 956.46 2034.06 963.508 2029.12C976.798 2019.8 992.834 2013.91 1008.54 2010.34C1013.08 2009.31 1017.85 2009.26 1022.27 2007.89C1022.46 2007.83 1022.65 2007.77 1022.84 2007.71L1024 2007.81L1024 2019.32C1022.05 2020.3 1021.06 2020.77 1018.88 2020.41C1011.01 2024 1001.71 2025.12 993.456 2027.87C982.267 2031.61 972.899 2038.67 962.995 2044.9L961.094 2046.4C960.531 2046.72 959.969 2047.01 959.364 2047.24C954.82 2048.98 947.422 2048.46 942.995 2046.68Z"/>
	<path fill="#2C2A4A" transform="scale(2 2)" d="M1018.88 2020.41C1021.06 2020.77 1022.05 2020.3 1024 2019.32L1024 2046.62L1022.91 2046.38C1022.3 2046.5 1021.69 2046.6 1021.07 2046.68C1015.05 2047.51 968.554 2048.09 965.602 2046.86C964.802 2046.53 963.723 2045.45 962.995 2044.9C972.899 2038.67 982.267 2031.61 993.456 2027.87C1001.71 2025.12 1011.01 2024 1018.88 2020.41Z"/>
	<path fill="#4F518C" transform="scale(2 2)" d="M734.031 2046.75L734.951 2045.13C739.222 2049.07 769.109 2047.42 776.425 2046.87C777.21 2046.81 777.924 2046.68 778.695 2046.53L778.873 2047.63C770.134 2048.86 741.722 2049.92 734.031 2046.75Z"/>
	<path fill="#4F518C" transform="scale(2 2)" d="M792.998 2046.74L793.918 2045.12C798.486 2049.45 821.114 2046.89 828.113 2047.12L828.113 2047.78C818.365 2048.09 801.661 2050.3 792.998 2046.74Z"/>
	<path fill="#4F518C" transform="scale(2 2)" d="M961.094 2046.4L962.995 2044.9C963.723 2045.45 964.802 2046.53 965.602 2046.86C968.554 2048.09 1015.05 2047.51 1021.07 2046.68C1021.69 2046.6 1022.3 2046.5 1022.91 2046.38L1024 2046.62L1024 2047.66C1015.73 2048.72 966.366 2049.47 961.094 2046.4Z"/>
	<path fill="#4F518C" transform="scale(2 2)" d="M695.059 2046.59C703.057 2047.46 711.881 2047.54 719.865 2046.57L719.975 2047.64C711.973 2048.72 702.969 2048.17 694.89 2047.64L695.059 2046.59Z"/>
</svg>
